<?xml version="1.0" encoding="UTF-8"?>
<svg id="Capa_1" data-name="Capa 1" xmlns="http://www.w3.org/2000/svg" viewBox="0 0 334.13 360.08">
  <path d="m223.33,80.99c7.14-6.91,11.22-3.49,7.5,5.06,8.06.14,12.36,9.33,20.16,9.66,4.92-5.06-10.62-8.03-12.87-12.51,5.85,1.2,11.73,1.3,17.88.37,12.12,2.97-1.93,3.85-7.2,4.69,6.97,5.82,16.88-.39,23.84,6.04,3.99,4.89-7.97,1.71-10.67,3.3,4.24,4,10.29.76,15.47,1.49,10.52,3.37.18,4.44-5.02,5.36,4.09,3.96,9.28,1.15,14.19,1.45,12.82,5.72-14.06,1.81-3.36,6.64,2.88.46,6.2-1.86,8.22,1.23-6.72,2.64-8.83,4.6.2,5.1-3.82,2.27-8.18,3.06-12.36,4.38-.82,5.26,8.21,10.19-2.69,8.64.55,3.32-.47,7.87,4.61,6.86,2.48-.06,3.53-.52,2.66-3.66,5.87,3.17,11.35-4.7,18.13,1.8,6.83,4.39,10.87,9.45,11.11,17.88,4.45,6.21,9.25,14.24,11.09,22.31-2.24,4.74-10.05,2.92-14.53,3.35-10.61,4.55-4.29,4.9,3.76,3.31,2.34.03-.79,1.16-.76,2.19.73,2.05-.42,6.39,2.11,6.83,2.69-.38,2.17-.34,1.35-2.65,1.67.23,2.24,2,2.59-.49-3.02-13.83,17.45,2.14,5.87,1.9-6.35,1.09,11.67,4.95,9.3,12.11-12.32,7.61-32.26,10.17-39.86,24.48,6.29,13.93-12.38,14.85-19.41,23.06.69,5.68-6.07,6.38-7.26,10.83-7.17,3.6-18.17-1.14-23.1,7.26-16.55,11.4-35.45-9.38-53.24.51-32.76,19.25-46.73,61.97-71.72,90.27-39.48-27.89-75.82-69.3-114.1-101.79C-.25,232.54,2.49,204.01,0,177.36c16.07-46.29,33.76-94.31,53.94-138.68C76.36,25.97,102.85,17.58,120.82,0c10.32.98,11.17,1.07,7.4,10.73,3.27.51,9.79-6.67,11.3-.92-3.08,3.51-9.7,2.31-9.54,7.72,6.06,5.31,8.69-6.74,10.21-3.93,5.62,7.83.27-3.27,8.26-.36,7.81,4.19,4.65,10.39,16.63,13.36,9.33,2.19,2.21,13.4,10.46,15.92,13.77,5.88,27.8,11.48,36.05,24.76,11.13-2.25,21.23.43,11.75,13.7Z"/>
</svg>