<?xml version="1.0" encoding="utf-8"?>
<!-- Generator: Adobe Illustrator 27.4.1, SVG Export Plug-In . SVG Version: 6.00 Build 0)  -->
<svg version="1.1" id="Layer_1" xmlns="http://www.w3.org/2000/svg" xmlns:xlink="http://www.w3.org/1999/xlink" x="0px" y="0px"
	 viewBox="0 0 729.9 186.4" style="enable-background:new 0 0 729.9 186.4;" xml:space="preserve">
<style type="text/css">
	.st0{fill:#FFFFFF;}
	.st1{fill:#FF5430;}
	.st2{fill:#00C9DA;}
	.st3{fill:#FF9C00;}
	.st4{fill:#00CBD8;}
	.st5{fill:#0077C4;}
	.st6{fill:#00CADF;}
	.st7{fill:#03C7D5;}
	.st8{fill:#0075C4;}
	.st9{fill:#FF9F00;}
	.st10{fill:#00C7DE;}
	.st11{fill:#F95824;}
	.st12{fill:#FF522A;}
	.st13{fill:#F9A217;}
	.st14{fill:#00C9DD;}
	.st15{fill:#E5523E;}
	.st16{fill:#FB5427;}
	.st17{fill:#FF9A03;}
	.st18{fill:#00C7DA;}
	.st19{fill:#16AFB4;}
	.st20{fill:#E6007E;}
	.st21{fill:#014A7F;}
	.st22{fill:#FE7701;}
	.st23{fill:#1C1C1C;}
	.st24{fill:#178FCC;}
	.st25{fill:#1F3A85;}
</style>
<g>
	<g>
		<g>
			<path class="st20" d="M690,138.1c0-1.8,0-3.7,0-5.5c0-1,1.1-2,1.5-1.2c1.1,2,1.8,0.5,2.8,0.2c2.3-0.9,4.6-0.9,6.5,0.9
				c0.8,0.8,1.2,0.7,2.1,0.1c4.6-3.2,8.9-1.4,9.6,4c0.3,2.3,0.1,4.7,0.1,7c0,0.8-0.3,1.5-1.2,1.5c-1.2,0.1-1.4-0.7-1.4-1.7
				c0-2.1,0.1-4.2,0-6.3c-0.1-2.9-1-3.8-3.3-3.9c-2.4-0.1-3.8,1.1-4.1,3.7c-0.2,1.8,0,3.7-0.1,5.5c0,1,0.5,2.5-1.2,2.5
				c-1.4,0-1-1.4-1-2.3c-0.1-1.7,0-3.4,0-5.1c-0.2-3-1.4-4.4-3.9-4.3c-2.4,0.1-3.4,1.3-3.5,4.2c-0.1,2,0,3.9,0,5.9
				c0,0.9-0.2,1.8-1.3,1.7c-1.2,0-1.3-0.8-1.3-1.8C690,141.5,689.9,139.8,690,138.1z"/>
			<path class="st20" d="M549.4,134.2c0-2.7,0-5.4,0-8.1c0-1.4,0.3-2.3,2-2.3c3.2,0.1,6.4,0,9.6,0c0.7,0,1.6,0,1.6,1
				c0,1-0.7,1.1-1.5,1.1c-2.3,0-4.7,0.1-7,0c-1.4,0-1.9,0.5-2,1.9c-0.6,6.2-0.5,6.3,5.7,6.4c1.3,0,3.6-0.9,3.7,1
				c0.1,2.3-2.3,1.5-3.7,1.5c-5.5,0.1-5.5,0.1-5.7,5.6c0,1,0.5,2.5-1.3,2.5c-1.7,0.1-1.4-1.4-1.4-2.4
				C549.4,139.8,549.4,137,549.4,134.2z"/>
			<path class="st20" d="M669.2,134.7c0,2.9,0,5.9,0,8.8c0,1.2-1,2.2-1.7,1.2c-0.9-1.4-1.2-1.1-2.3-0.4c-3,1.7-5.8,1.2-8-1.1
				c-2.3-2.4-2.7-6-0.9-9.1c1.5-2.6,4.4-3.7,7.6-2.8c0.5,0.1,0.9,0.3,1.3,0.6c1.7,1.1,1.7,0,1.7-1.2c0-1.7,0-3.4,0-5.1
				c0-0.7,0-1.6,1-1.6c1.3-0.1,1.2,0.9,1.3,1.8c0,0.1,0,0.2,0,0.4C669.2,128.8,669.2,131.8,669.2,134.7z M662.3,142.9
				c2.8,0,4.7-2.1,4.7-5c0-2.9-1.9-4.8-4.8-4.8c-2.9,0-4.8,2-4.7,4.9C657.6,140.9,659.6,143,662.3,142.9z"/>
			<path class="st20" d="M679.6,131c4.1,0,7.2,3,7.2,7.1c0,4-3.2,7.2-7.3,7.1c-3.9-0.1-6.8-3-6.9-7C672.7,133.7,675.3,131,679.6,131
				z M675,137.5c-0.2,3,1.5,5.2,4.1,5.4c2.5,0.2,5.1-1.9,5.4-4.4c0.3-2.7-1.7-5.1-4.3-5.3C677.3,133,675.2,134.7,675,137.5z"/>
			<path class="st20" d="M571.7,131c4.1,0,7.1,3.1,7,7.2c-0.1,3.9-3.1,6.9-7,6.9c-4.1,0-7.1-3-7.1-7.1
				C564.6,133.8,567.5,131,571.7,131z M571.7,142.9c2.7,0,4.8-2.2,4.8-4.9c0-2.8-2-4.8-4.8-4.8c-2.9,0-4.8,2-4.7,4.9
				C567,141,568.9,143,571.7,142.9z"/>
			<path class="st20" d="M599.9,134.5c0-2.7,0.1-5.4,0-8.1c-0.1-1.8,0.4-2.7,2.4-2.6c2.7,0.1,5.4,0,8.1,0.1c0.9,0,2.3-0.4,2.2,1.2
				c-0.1,1.4-1.5,1-2.3,1c-2,0.1-3.9,0.1-5.9,0c-1.5-0.1-2.1,0.5-2.2,2.1c-0.4,6.5-0.5,6.5,6.2,6.6c1.1,0,3.1-0.6,3.1,0.8
				c0,1.7-2.1,0.7-3.3,1c-0.1,0-0.2,0-0.4,0c-5.5,0-5.5,0-5.6,5.6c0,0.2,0,0.5,0,0.7c-0.1,0.9,0.3,2.2-1.3,2.1c-1.2-0.1-1-1.2-1-2
				C599.9,140.1,599.9,137.3,599.9,134.5z"/>
			<path class="st20" d="M647.8,145.2c-5.4,0.1-8.4-3.1-8.1-7.9c0.2-4.3,3.3-6.7,7.7-6.2c3,0.3,5.4,2.9,5.5,5.9
				c0,1.3-0.6,1.7-1.8,1.7c-2.4,0-4.9,0.1-7.3,0c-2-0.1-2,0.8-1.2,2.2c1.3,2.1,3.2,2.7,6.5,2c0.8-0.2,1.9-1.5,2.4,0.1
				c0.4,1.2-1,1.5-1.8,1.8C648.9,145.1,648.1,145.1,647.8,145.2z M646.3,136.9c0.5,0,1,0.1,1.5,0c0.9-0.2,2.5,0.7,2.7-0.8
				c0.1-1.1-0.8-2.2-2-2.8c-1.3-0.7-2.5-0.7-3.9,0c-1.3,0.6-2.5,1.7-2.2,3c0.3,1.3,1.9,0.4,2.9,0.7
				C645.6,137,645.9,136.9,646.3,136.9z"/>
			<path class="st20" d="M631.2,145.2c-3-0.1-5.2-1.3-6.4-4.1c-1.2-2.8-1-5.5,0.9-8c1.8-2.3,4.4-2.4,7.1-2c2.4,0.4,4.7,3.5,4.6,5.9
				c0,1.4-0.9,1.5-2,1.5c-2.5,0-4.9,0-7.4,0c-1.7,0-1.8,0.9-1.1,2.1c1.3,2.2,3.4,2.8,6.9,1.9c0.8-0.2,1.7-1,2.1,0.2
				c0.3,1-0.8,1.3-1.5,1.7C633.4,145.1,632.4,145.2,631.2,145.2z M626.6,135.9c0.2,1,0.8,1,1.4,1c1.6,0,3.2,0.1,4.8,0
				c0.8,0,1.9,0.5,2.2-0.7c0.2-0.8-0.4-1.7-1-2.2c-0.6-0.5-1.2-0.9-1.9-1.1C629.9,132.3,626.4,134.4,626.6,135.9z"/>
			<path class="st20" d="M615.5,137.9c0-1.2,0-2.4,0-3.7c0-1-0.4-2.1,0.4-2.8c0.9-0.7,1.4,0.5,2.1,0.7c0.7,0.2,1.6-0.8,2.5-0.9
				c0.8-0.1,2.1-0.7,2.4,0.8c0.2,1.2-0.8,1.3-1.7,1.3c-2.5,0.2-3.3,1.9-3.4,4c-0.1,2,0,3.9-0.1,5.9c0,0.8,0.1,1.9-1.2,1.8
				c-1.2-0.1-1-1.1-1-2C615.4,141.3,615.5,139.6,615.5,137.9z"/>
			<path class="st20" d="M583.4,131.3c1.1,2.9,2.2,0.2,3.3,0c0.6-0.1,1.2-0.2,1.8-0.2c0.6,0,1.2,0.1,1.3,1c0,0.7-0.4,1-1,1.2
				c-4.1,1.4-4.1,1.4-4.2,5.8c0,1.5,0,2.9,0,4.4c0,0.8-0.2,1.5-1.2,1.5c-0.8,0-1.1-0.6-1.1-1.2c0-3.8,0-7.6,0-11.4
				C582.3,131.7,582.6,131.2,583.4,131.3z"/>
			<path class="st20" d="M717.9,145.1c-1.4-0.1-1.7-0.8-1.7-1.7c0-1,0.6-1.7,1.6-1.6c1,0.1,1.5,0.7,1.4,1.7
				C719.2,144.5,718.5,144.9,717.9,145.1z"/>
		</g>
	</g>
	<g>
		<path class="st21" d="M148.5,75.6c0-14.2,0-28.4,0-42.7c0-0.8-0.5-2,0.5-2.2c0.8-0.2,1.4,0.9,2,1.5c14.5,14.3,23.2,31.4,25.3,51.7
			c2.8,27.3-5.4,50.9-25,70.1c-18.6,18.2-41.2,25.8-67.1,23c-15.5-1.7-29.2-7.6-41.5-17.1c-0.6-0.5-1.1-1-1.7-1.4
			c-1.5-1.1-1.4-1.7,0.5-2.2c9-2.4,17.9-4.9,26.9-7.3c23.7-6.4,47.4-12.8,71.1-19.3c6.2-1.7,8.9-5.2,8.9-11.7
			C148.6,103.8,148.5,89.7,148.5,75.6z"/>
		<path class="st21" d="M94.1,9c19,0.3,36,6.2,51,18c0.2,0.2,0.4,0.3,0.6,0.5c0.6,0.7,2,1.1,1.8,2.1c-0.2,1.2-1.6,0.9-2.5,1.1
			c-22.2,6.1-44.3,12.1-66.5,18.1c-9.9,2.7-19.8,5.4-29.7,8.1c-7.2,2-9.7,5.1-9.7,12.5c0,27.5,0,54.9,0,82.4c0,1.3,0.7,3.3-0.5,3.8
			c-1.4,0.6-2.3-1.4-3.3-2.4c-18.8-19.6-26.9-42.8-24-69.8C15,48.8,39.8,20.2,73.4,11.5C80.2,9.8,87.1,8.9,94.1,9z"/>
		<path class="st21" d="M72.3,98.8c0-9.9,0.1-19.8,0-29.8c0-2.2,0.5-3.2,2.8-3.7c12.5-3.2,25-6.7,37.5-10.1c2.7-0.7,2.7-0.7,2.7,2.2
			c0,2.7-0.2,5.4,0.1,8.1c0.2,2.3-0.7,3.2-2.8,3.7c-7.5,1.9-14.8,4.1-22.3,5.9c-2.4,0.6-3.5,1.5-3.3,4.1c0.3,3.4,0.1,6.9,0.1,10.3
			c0,3.7,0,3.7,3.5,2.8c6.1-1.6,12.3-3.2,18.4-5c1.9-0.6,2.7-0.4,2.5,1.8c-0.2,3.1-0.1,6.1,0,9.2c0.1,1.8-0.6,2.5-2.4,2.9
			c-6.5,1.7-12.9,3.6-19.5,5.2c-2.1,0.5-2.7,1.4-2.7,3.5c0.2,5.1-0.1,10.3,0.1,15.4c0.1,2.2-0.8,3-2.7,3.5c-3.2,0.8-6.4,1.6-9.6,2.6
			c-2,0.6-2.6,0.3-2.5-1.8c0.1-5.9,0-11.8,0-17.6C72.3,107.6,72.3,103.2,72.3,98.8z"/>
		<path class="st21" d="M609.1,78.8c-1.8,3.1-3.6,6.3-5.4,9.4c-1.9,3.3-5,3.2-7-0.1c-1.5-2.5-2.9-5.1-4.3-7.7
			c-0.2-0.4-0.3-1.1-0.9-1c-0.8,0.2-0.5,1-0.5,1.5c0,3.2-0.1,6.4,0,9.6c0.1,2.2-0.6,3.3-2.9,2.9c-0.7-0.1-1.5-0.1-2.2,0
			c-1.7,0.2-2.1-0.6-2-2.2c0.2-5.8,0.4-11.5,0.6-17.3c0.1-2.7,0-5.4,0.2-8.1c0.1-1-0.7-2.5,0.9-2.8c1.6-0.3,3.4-0.7,4.5,1.4
			c1.5,2.9,3.3,5.7,4.9,8.6c1.4,2.4,2.9,4.8,4.2,7.3c0.8,1.5,1.3,1.4,2.1,0c3-5.1,6-10.1,9-15.2c0.5-0.8,0.8-1.8,1.8-2.2
			c2.4-0.9,4,0.2,4,2.8c0.2,8.2,0.3,16.4,0.6,24.6c0.1,2-0.4,3-2.6,2.8c-0.6-0.1-1.2-0.1-1.8,0c-2.2,0.3-2.7-0.7-2.7-2.7
			c0.1-3.9,0-7.7,0-11.6C609.5,78.9,609.3,78.8,609.1,78.8z"/>
		<path class="st21" d="M661,76.6c0,4.5,0,9-0.1,13.6c0,3.2,0,3.2-3.3,3.1c-0.7,0-1.5-0.1-2.2-0.1c-1.3,0-1.6-0.6-1.6-1.8
			c0-8.9,0-17.8,0-26.8c0-1.8,2.5-2.7,4.3-1.6c0.7,0.4,1.2,1.2,1.8,1.8c4.6,4.9,9.1,9.9,13.7,14.8c0.1,0.3,0.2,0.6,0.6,0.5
			c0.1,0,0.2-0.3,0.3-0.5c0-4.8,0.1-9.5,0.1-14.3c0-1.9,0.5-2.7,2.5-2.5c0.8,0.1,1.7,0.1,2.6,0c1.5-0.1,2.2,0.4,2.2,2.1
			c-0.1,8.9,0,17.9,0,26.8c0,0.7,0.3,1.7-0.7,1.8c-1.4,0.2-2.9,0.6-4.1-0.7c-1.2-1.4-2.5-2.7-3.7-4c-3.7-4-7.5-8.1-11.2-12.1
			c-0.1-0.3-0.2-0.6-0.6-0.5C661.2,76.1,661.1,76.4,661,76.6z"/>
		<path class="st21" d="M354.4,131.3c0-4.8,0.1-9.6,0.1-14.3c0-1.7,0.5-2.5,2.3-2.4c0.6,0.1,1.2,0,1.8,0c3,0,3,0,3,3
			c0,8.2,0,16.4,0,24.6c0,1,0.8,2.5-0.8,2.8c-1.4,0.3-2.9,0.6-4.1-0.8c-1.9-2.1-3.8-4.2-5.7-6.2c-2.8-3.1-5.6-6.1-8.5-9.2
			c-0.3-0.3-0.8-0.9-1.1-0.8c-0.8,0.1-0.5,1-0.5,1.5c0,4.2-0.1,8.3,0,12.5c0.1,2.2-0.5,3.3-2.8,2.9c-0.6-0.1-1.2-0.1-1.8,0
			c-1.9,0.2-2.6-0.5-2.5-2.5c0.1-8.6,0-17.2,0.1-25.7c0-0.8-0.4-2,0.6-2.3c1.2-0.4,2.7-0.6,3.8,0.3c0.7,0.5,1.2,1.2,1.8,1.8
			c4.5,4.9,9,9.7,13.5,14.6c0.1,0.3,0.2,0.6,0.6,0.6C354.2,131.8,354.3,131.5,354.4,131.3z"/>
		<path class="st21" d="M716.3,78.6c0,3.9,0.1,7.8,0,11.7c0,1.1,0.9,2.7-0.7,3.2c-1.6,0.5-3.3,0.4-4.6-1.3c-1.8-2.2-3.8-4.2-5.7-6.2
			c-2.3-2.5-4.6-5.1-7-7.5c-0.7-0.7-1.4-2.3-2.3-1.9c-0.8,0.3-0.3,2-0.3,3.1c0,3.5-0.1,7.1,0,10.6c0.1,2.2-0.4,3.3-2.8,2.9
			c-0.6-0.1-1.2-0.1-1.8,0c-1.9,0.2-2.6-0.5-2.6-2.5c0.1-4.6,0-9.3,0-14c0-3.7,0-7.3,0-11c0-1-0.7-2.5,0.7-2.9
			c1.5-0.4,3.1-0.6,4.4,0.9c1.9,2.2,4,4.3,6,6.5c2.7,2.9,5.3,5.7,8,8.6c0.3,0.3,0.6,0.9,1.2,0.6c0.6-0.2,0.4-0.8,0.4-1.3
			c0-4.3,0.1-8.6,0-12.9c-0.1-1.9,0.6-2.7,2.5-2.5c0.8,0.1,1.7,0.1,2.6,0c1.6-0.2,2.1,0.5,2.1,2.1C716.3,69.5,716.3,74.1,716.3,78.6
			z"/>
		<path class="st21" d="M337.4,78.1c0-4.3,0-8.6,0-12.9c0-1.4,0.1-2.4,1.9-2.3c4.6,0.2,9.3-0.4,13.9,0.5c7.7,1.4,12.3,7.2,12.1,15.5
			c-0.2,7.6-5.3,13.2-12.8,14.1c-4.3,0.5-8.6,0.2-12.9,0.3c-1.8,0.1-2.3-0.6-2.3-2.4C337.5,86.7,337.4,82.4,337.4,78.1z M348.2,69.4
			c-4,0.1-3.5-0.4-3.5,3.5c0,3.5,0,7.1,0,10.6c0,3.8-0.4,3.4,3.6,3.4c5.5,0,8.8-2.3,9.6-6.6C359.1,73.7,355.3,69.4,348.2,69.4z"/>
		<path class="st21" d="M368.4,129.7c0-4.2,0.1-8.3,0-12.5c-0.1-1.9,0.6-2.6,2.5-2.6c4.2,0.2,8.3-0.2,12.5,0.3
			c7.5,0.8,12.7,6.4,12.9,14c0.3,8.4-4.2,14.2-11.8,15.7c-4.7,0.9-9.5,0.3-14.3,0.5c-1.6,0.1-1.8-0.8-1.8-2.1
			C368.4,138.5,368.4,134.1,368.4,129.7z M375.6,129.6c0,2.4,0,4.9,0,7.3c0,0.7,0,1.5,1,1.6c7.2,0.7,13.1-1.6,12.3-10.1
			c-0.5-4.8-3.8-7.3-9.6-7.3c-3.9,0-3.6-0.4-3.6,3.4C375.6,126.1,375.6,127.8,375.6,129.6z"/>
		<path class="st21" d="M482.5,145.2c-9.2,0-15.8-6.7-15.7-15.7c0.1-8.7,6.9-15.3,15.9-15.3c9.1,0,15.8,6.8,15.7,15.8
			C498.4,138.9,491.6,145.3,482.5,145.2z M491.1,129.8c0-4.9-3.7-8.8-8.4-8.9c-4.9-0.1-8.6,3.8-8.6,9c0,5,3.7,8.6,8.5,8.6
			C487.5,138.5,491.1,134.8,491.1,129.8z"/>
		<path class="st21" d="M279.8,145.2c-9.2,0-16-6.6-16-15.5c0.1-8.7,6.8-15.4,15.8-15.4c9.2-0.1,15.9,6.5,15.9,15.6
			C295.4,138.8,288.9,145.2,279.8,145.2z M288.1,129.6c-0.1-5-3.7-8.8-8.5-8.7c-4.7,0.1-8.4,3.9-8.5,8.8c0,5.1,3.7,8.9,8.7,8.8
			C284.7,138.4,288.1,134.7,288.1,129.6z"/>
		<path class="st21" d="M503.6,129.4c0-3.9-0.1-7.8,0-11.8c0-1.1-0.8-2.8,0.7-3.2c1.6-0.5,3.2-0.3,4.6,1.3c3.1,3.6,6.4,7.1,9.7,10.6
			c1.3,1.4,2.6,2.9,4,4.3c0.4,0.4,0.7,1.2,1.4,0.8c0.2-0.1,0.2-0.9,0.2-1.4c0-4.2,0-8.3,0-12.5c0-3,0-3,3-3c4,0,4,0,4,4
			c0,7.7,0.1,15.4,0,23.1c0,1.2,0.9,3-1,3.4c-1.7,0.4-3.2,0.1-4.6-1.5c-3.7-4.2-7.6-8.3-11.5-12.4c-1-1.1-1.9-3.2-3.4-2.7
			c-1.1,0.4-0.4,2.7-0.4,4.1c-0.1,3.3-0.1,6.6,0,9.9c0.1,2-0.7,2.7-2.6,2.5c-0.7-0.1-1.5-0.1-2.2,0c-1.9,0.3-2.2-0.7-2.2-2.4
			C503.7,138.2,503.6,133.8,503.6,129.4z"/>
		<path class="st21" d="M370.5,78c0-4.3,0-8.6,0-12.8c0-1.1-0.1-2.3,1.6-2.2c4,0.1,8.1-0.4,12.1,0.3c4.6,0.8,7.9,3.1,9.3,7.7
			c1.3,4.6,0.2,8.5-3.5,11.5c-1.1,0.9-1.3,1.5-0.1,2.4c1.3,1.1,2.3,2.7,4.2,2.7c1.4,0,1.5,0.8,1.5,1.9c0.2,3.9-0.4,4.5-4.2,4.1
			c-3.3-0.3-5.4-2.4-7.3-5c-1.1-1.4-1.8-3.3-4-3.4c-1.4-0.1-2.4,0.1-2.2,1.9c0.1,0.7,0,1.5,0,2.2c-0.1,4.1,0.6,3.9-4,3.9
			c-3.3,0-3.3,0-3.3-3.5C370.5,85.8,370.5,81.9,370.5,78z M377.8,73.9C377.8,73.9,377.8,73.9,377.8,73.9c0,1.2,0,2.5,0,3.7
			c0,0.7,0.1,1.2,1,1.3c2.1,0.1,4.2,0.2,6-1.1c1.8-1.3,2.4-3.5,1.4-5.5c-1.1-2.2-3.9-3.4-7-2.9c-2.5,0.5-0.9,2.5-1.4,3.8
			C377.7,73.4,377.8,73.7,377.8,73.9z"/>
		<path class="st21" d="M266,77.8c0-4.3,0-8.6,0-12.8c0-1.3,0.3-2.1,1.8-2c4,0.2,8.1-0.3,12.1,0.4c4.6,0.8,7.9,3.2,9.1,7.9
			c1.2,4.4,0.2,8.3-3.4,11.2c-1.4,1.1-1.3,1.7-0.1,2.7c1.1,0.9,2,2.4,3.5,2.5c3.5,0.3,1.8,2.8,2,4.4c0.2,2.2-1.7,1.6-2.9,1.7
			c-3.1,0.2-5.4-1.2-7.3-3.4c-1-1.2-1.9-2.5-2.9-3.8c-1-1.2-2.3-1.4-3.7-1.1c-1.6,0.4-0.7,1.8-0.9,2.8c0,0.1,0,0.2,0,0.4
			c-0.1,5.2,0,5.1-5.3,4.8c-1.7-0.1-2-0.8-2-2.3C266.1,86.6,266,82.2,266,77.8z M276,69.4c-1.9-0.4-3.1,0.1-2.8,2.6
			c0.2,1.4,0.2,2.9,0,4.4c-0.2,2.1,0.5,2.8,2.6,2.6c1.2-0.1,2.4-0.1,3.5-0.7c3.4-1.6,3.7-5.9,0.6-8C278.8,69.5,277.5,69.2,276,69.4z
			"/>
		<path class="st21" d="M494.3,76.8c0,4.5-0.1,9.1,0,13.6c0.1,2.3-0.7,3.2-2.9,2.8c-0.5-0.1-1-0.1-1.5,0c-2.2,0.3-2.6-0.7-2.6-2.7
			c0.1-8.3,0-16.6,0.1-25c0-0.9-0.8-2.5,0.8-2.8c1.2-0.2,2.7-0.6,3.8,0.7c0.6,0.7,1.3,1.4,2,2.2c3.7,4,7.5,8.1,11.2,12.1
			c0.7,0.8,1.4,2.3,2.3,2c1-0.3,0.4-1.9,0.4-2.9c0.1-3.5,0-7.1,0-10.6c0-3.3,0-3.3,3.5-3.3c0.5,0,1,0,1.5,0c1.4-0.1,2,0.4,2,1.9
			c0,9.1,0,18.1,0,27.2c0,1.7-2.3,2.5-4.1,1.3c-0.7-0.5-1.2-1.2-1.8-1.8c-4.7-5-9.4-10-14-15c-0.2-0.1-0.3-0.4-0.5-0.3
			C494.1,76.2,494.1,76.5,494.3,76.8z"/>
		<path class="st21" d="M443.3,77.8c0-4,0.1-8.1,0-12.1c-0.1-1.9,0.3-2.9,2.6-2.8c5.8,0.2,4.6-0.4,4.7,4.7c0,1.7,0.1,3.4,0,5.1
			c-0.2,2,0.7,2.5,2.6,2.4c2.8-0.1,5.6-0.2,8.5,0c2.1,0.1,2.5-0.8,2.4-2.6c-0.1-2.6,0-5.1,0-7.7c0-1.4,0.6-2,2-1.9
			c0.2,0,0.5,0,0.7,0c5.5,0,4.5-0.4,4.6,4.4c0.1,7.5,0,14.9,0,22.4c0,3.5,0,3.5-3.6,3.5c-0.4,0-0.7,0-1.1,0
			c-1.8,0.2-2.7-0.4-2.6-2.4c0.2-2.4,0-4.9,0.1-7.3c0.1-1.6-0.5-2.2-2.1-2.1c-3.1,0.1-6.1,0.1-9.2,0c-1.6,0-2.2,0.5-2.1,2.1
			c0.1,2.6,0,5.1,0,7.7c0.1,1.5-0.5,2.1-2.1,2.2c-5.2,0.4-5.2,0.4-5.2-4.9C443.3,84.9,443.3,81.4,443.3,77.8z"/>
		<path class="st21" d="M550.7,73.3c0-2.8,0-5.6,0-8.4c0-1.4,0.4-2.1,1.9-1.9c0.1,0,0.2,0,0.4,0c5-0.3,5-0.3,5,4.7c0,4,0,8.1,0,12.1
			c0,5,2,7.3,6.1,7.3c4.3,0,6.4-2.4,6.5-7.5c0-4.5,0-9.1,0-13.6c0-3,0-3,2.9-3.1c0.7,0,1.5,0.1,2.2,0c1.6-0.1,2.2,0.5,2.1,2.1
			c-0.1,5.3,0.2,10.5-0.1,15.8c-0.6,10.9-11.7,16.6-21.2,11c-4-2.3-5.5-6.1-5.8-10.4C550.6,78.7,550.8,76,550.7,73.3
			C550.8,73.3,550.8,73.3,550.7,73.3z"/>
		<path class="st21" d="M310.2,77.9c0-4.3,0.1-8.6,0-12.9c0-1.6,0.6-2.1,2.1-2.1c5.6,0.1,11.3,0.1,16.9,0c1.6,0,2.3,0.5,2.1,2.1
			c-0.1,0.5-0.1,1,0,1.5c0.3,2.2-0.4,3.1-2.8,2.9c-3-0.2-6.1,0.1-9.2-0.1c-2.1-0.1-2,1.2-2,2.6c0.1,1.4-0.5,3,2,2.9
			c2.6-0.1,5.1,0.1,7.7,0c1.8-0.1,2.6,0.5,2.6,2.5c0,3.9,0.2,3.9-3.6,3.9c-2.3,0-4.7,0.1-7,0c-1.3,0-1.6,0.5-1.7,1.7
			c-0.3,3.9-0.2,4.1,3.7,4.1c2.7,0,5.4,0.1,8.1,0c1.8-0.1,2.5,0.5,2.2,2.3c-0.1,0.7-0.1,1.5,0,2.2c0.2,1.6-0.7,1.8-2,1.8
			c-5.6,0-11.3,0-16.9,0.1c-2,0-2.5-0.7-2.5-2.6C310.3,86.5,310.2,82.2,310.2,77.9z"/>
		<path class="st21" d="M327.1,125.3c0,2.8,0.2,5.6,0,8.5c-0.4,6.6-5,11-11.7,11.4c-7.6,0.5-12.6-2.5-14.5-8.5
			c-0.5-1.7-0.6-3.4-0.6-5.1c0-4.7,0-9.3,0-14c0-2.9,0.1-2.9,3.1-3c0.6,0,1.2,0.1,1.8,0c1.6-0.2,2.2,0.5,2.1,2.1
			c-0.1,4.4,0,8.8,0,13.2c0,1,0,2,0.1,2.9c0.5,3.9,2.6,5.8,6.3,5.8c3.7,0,5.9-1.9,6.2-5.8c0.3-3.9,0.1-7.8,0.2-11.8
			c0-0.9,0-1.7,0-2.6c0-4.2-0.5-3.9,4-3.9c3,0,3,0,3.1,2.9c0,2.6,0,5.1,0,7.7C327.2,125.3,327.1,125.3,327.1,125.3z"/>
		<path class="st21" d="M635.1,87.8c-0.6,0-1.2,0.1-1.8,0c-2.7-0.4-4.5,0.3-5.1,3.2c-0.4,2-1.7,2.5-3.5,2.3c-0.7-0.1-1.5,0-2.2,0
			c-2.8-0.1-2.8-0.1-1.8-2.5c1.4-3.3,2.9-6.5,4.3-9.7c2.3-5.2,4.6-10.5,6.9-15.8c0.7-1.6,1.5-2.5,3.5-2.5c1.9,0,2.5,1,3.1,2.4
			c3.7,8.5,7.4,17,11.1,25.5c1,2.4,1,2.4-1.5,2.5c-1.1,0-2.2-0.1-3.3,0c-1.3,0.1-2.1-0.5-2.3-1.8c-0.6-3.4-2.8-4.2-5.8-3.7
			C636.1,87.9,635.6,87.8,635.1,87.8z M635.1,81.8c0.4,0,0.7,0,1.1,0c1.7,0.2,2.7-0.2,1.6-2.2c-0.2-0.3-0.2-0.7-0.4-1
			c-0.9-1.4-0.9-3.3-2.3-4.5c-1,1.4-1.4,3-2,4.5C631.8,81.8,631.8,81.8,635.1,81.8z"/>
		<path class="st21" d="M422.8,145c-2.2,0.5-3.6-0.5-4.2-3c-0.4-2-1.5-2.9-3.7-2.6c-1.2,0.2-2.5,0.1-3.7,0c-3.3-0.3-6.1,0.1-6.8,4.1
			c-0.2,1.2-1,1.5-2.2,1.5c-0.9-0.1-1.7,0-2.6,0c-3.4,0-3.4-0.1-2.1-3.1c3.6-8.2,7.2-16.3,10.7-24.5c0.7-1.7,1.3-2.9,3.6-2.8
			c2.3,0,2.8,1.5,3.4,3c3.4,7.8,6.8,15.7,10.2,23.5C427.4,145,427.4,145,422.8,145z M411.9,133.4c3.4,0,3.4,0,2.1-3.1
			c-0.5-1.2-1-2.5-1.5-3.7c-0.1-0.3-0.3-0.6-0.5-0.9c-0.2,0.3-0.6,0.5-0.7,0.8c-0.8,1.8-1.5,3.6-2.3,5.4c-0.5,1.2-0.1,1.5,1.1,1.5
			C410.7,133.4,411.3,133.4,411.9,133.4z"/>
		<path class="st21" d="M544.9,93.3c-2.4,0.5-4-0.6-4.6-3.4c-0.4-1.7-1.5-2.3-3.2-2.1c-1.5,0.1-2.9,0.1-4.4,0c-3-0.3-5.6,0-6.2,3.8
			c-0.2,1.3-1.1,1.8-2.4,1.7c-0.9,0-1.7,0-2.6,0c-3.2,0-3.3-0.1-2-2.9c3.7-8.4,7.4-16.8,11-25.2c0.6-1.5,1.3-2.4,3.2-2.4
			c1.8,0,2.6,0.6,3.2,2.2c3.6,8.5,7.4,17,11.1,25.5c1.1,2.5,1,2.6-1.7,2.7C546,93.3,545.6,93.3,544.9,93.3z M533.8,81.8
			c0.5,0,1,0,1.5,0c1.7,0.1,1.8-0.7,1.2-2c-0.7-1.6-1.3-3.2-2-4.7c-0.4-0.8-0.9-1.2-1.4,0c-0.7,1.7-1.4,3.4-2.1,5.1
			c-0.5,1.3,0.1,1.7,1.4,1.6C532.8,81.8,533.3,81.8,533.8,81.8z"/>
		<path class="st21" d="M429.5,62.7c2.4-0.2,5,0.6,7.5,1.7c1.4,0.6,2.2,1.5,1.1,3.1c-0.5,0.7-0.9,1.5-1.2,2.2
			c-0.6,1.3-1.4,1.5-2.6,0.8c-1.5-0.8-3.2-1.1-5-1.1c-5.5,0.1-9,3.7-8.8,9.1c0.2,5.2,4.2,8.7,9.6,8.3c1.1-0.1,2.2-0.4,3.2-0.7
			c1-0.2,2-1.6,2.9-0.4c1,1.3,1.8,2.9,2.5,4.5c0.3,0.8-0.7,1.1-1.3,1.5c-5.2,3.1-13.8,2.4-18.7-1.5c-5-4-6.9-11.2-4.7-17.7
			c2.1-6,7.7-9.8,14.5-9.9C428.7,62.7,429,62.7,429.5,62.7z"/>
		<path class="st21" d="M259.3,129.7c0,5.7,0,5.7-5.5,5.7c-6.3,0-6.2,0-6.4,6.3c0,1.1,0.8,2.8-0.9,3.1c-1.9,0.4-3.9,0.4-5.8-0.1
			c-0.7-0.2-0.5-1-0.5-1.6c0-8.9,0-17.9,0-26.8c0-1.5,0.7-1.8,2-1.8c5.6,0,11.3,0.1,16.9,0c1.6,0,2,0.7,2.1,2.2
			c0.2,4.2,0.3,4.2-4,4.2c-2.3,0-4.7,0.1-7,0c-1.9-0.1-2.8,0.3-2.8,2.6c0,5.5-0.1,5.4,5.3,5.5c2,0,3.9,0,5.9,0
			C258.8,129.2,259,129.5,259.3,129.7z"/>
		<path class="st21" d="M240.2,78c0-4.3,0.1-8.6,0-12.8c0-1.8,0.5-2.3,2.3-2.3c5.4,0.1,10.8,0.1,16.1,0c1.9,0,2.8,0.5,2.5,2.5
			c-0.1,0.7-0.1,1.5,0,2.2c0.1,1.5-0.7,1.8-2,1.8c-3.1-0.1-6.1,0.1-9.2,0c-1.8-0.1-2.6,0.3-2.6,2.4c-0.1,5.7-0.2,5.7,5.5,5.7
			c1,0,2,0,2.9,0c3.4,0,3.4,0,3.4,3.3c0,3.1,0,3.1-3.3,3.1c-0.1,0-0.2,0-0.4,0c-2.6,0.1-5.7-0.8-7.5,0.4c-1.8,1.2-0.5,4.5-0.6,6.9
			c-0.1,1.6-0.7,2-2.2,2.1c-5.1,0.3-5.1,0.3-5.1-4.6C240.2,85.1,240.2,81.6,240.2,78z"/>
		<path class="st21" d="M437.8,114.6c3.4,0,6.9,0.2,10.3-0.1c2.4-0.1,3.1,0.8,2.8,3c-0.1,0.5,0,1,0,1.5c0.1,1.4-0.4,2.1-1.8,2
			c-1.1-0.1-2.2,0-3.3,0c-5.3,0.1-4.5-0.8-4.6,4.7c0,5.4,0,10.8,0,16.2c0,3,0,3.1-2.9,3.1c-4.9,0-4.3,0.4-4.3-4.3
			c0-5.4,0-10.8,0-16.2c0-3.5,0-3.5-3.7-3.5c-1.3,0-2.7-0.1-4,0c-1.7,0.1-2.2-0.6-2-2.1c0-0.4,0-0.7,0-1.1c0-3,0-3.1,2.9-3.1
			C430.7,114.6,434.3,114.6,437.8,114.6z"/>
		<path class="st21" d="M296.2,77.8c0-4,0.1-8.1,0-12.1c-0.1-2,0.4-2.9,2.6-2.8c5.8,0.2,4.6-0.4,4.7,4.7c0.1,7.5,0,15,0,22.4
			c0,3.3,0,3.3-3.4,3.3c-0.2,0-0.5,0-0.7,0c-3-0.1-3.1-0.1-3.1-3C296.2,86.1,296.2,82,296.2,77.8z"/>
		<path class="st21" d="M400.7,78.2c0-4.3,0-8.6,0-12.8c0-1.6,0.3-2.4,2.2-2.5c5.1-0.2,5.1-0.3,5.1,5c0,7.6-0.1,15.2,0,22.8
			c0,2.1-0.7,2.9-2.7,2.6c-0.8-0.1-1.7-0.1-2.6,0c-1.6,0.1-2.1-0.7-2-2.2C400.8,86.8,400.7,82.5,400.7,78.2z"/>
		<path class="st21" d="M461.7,130c0,4.3-0.1,8.6,0,12.9c0,1.6-0.5,2.1-2.1,2.1c-5.2,0.2-5.2,0.3-5.2-5c0-7.6,0.1-15.2,0-22.8
			c0-2.1,0.7-2.9,2.7-2.7c0.8,0.1,1.7,0.1,2.6,0c1.7-0.2,2.1,0.7,2,2.2C461.6,121.2,461.7,125.6,461.7,130z"/>
		<path class="st21" d="M354.4,131.3c-0.1,0.2-0.2,0.4-0.3,0.4c-0.4,0.1-0.5-0.2-0.6-0.6C353.8,131.3,354.1,131.3,354.4,131.3z"/>
		<path class="st21" d="M259.3,129.7c-0.2-0.3-0.5-0.5-0.7-0.8C259.1,128.9,259.4,129.2,259.3,129.7z"/>
		<path class="st21" d="M494.3,76.8c-0.1-0.3-0.2-0.6,0.2-0.7c0.1,0,0.3,0.2,0.5,0.3C494.7,76.6,494.5,76.7,494.3,76.8z"/>
		<path class="st21" d="M661,76.6c0.1-0.2,0.2-0.5,0.3-0.5c0.4-0.1,0.5,0.2,0.6,0.5C661.6,76.6,661.3,76.6,661,76.6z"/>
		<path class="st21" d="M674.4,79.7c-0.1,0.2-0.1,0.4-0.3,0.5c-0.4,0.1-0.5-0.2-0.6-0.5C673.9,79.7,674.2,79.7,674.4,79.7z"/>
	</g>
</g>
</svg>
