<?xml version="1.0" encoding="utf-8"?>
<!-- Generator: Adobe Illustrator 27.4.1, SVG Export Plug-In . SVG Version: 6.00 Build 0)  -->
<svg version="1.1" id="Layer_1" xmlns="http://www.w3.org/2000/svg" xmlns:xlink="http://www.w3.org/1999/xlink" x="0px" y="0px"
	 viewBox="0 0 561.3 171.3" style="enable-background:new 0 0 561.3 171.3;" xml:space="preserve">
<style type="text/css">
	.st0{fill:#FFFFFF;}
	.st1{fill:#FF5430;}
	.st2{fill:#00C9DA;}
	.st3{fill:#FF9C00;}
	.st4{fill:#00CBD8;}
	.st5{fill:#0077C4;}
	.st6{fill:#00CADF;}
	.st7{fill:#03C7D5;}
	.st8{fill:#0075C4;}
	.st9{fill:#FF9F00;}
	.st10{fill:#00C7DE;}
	.st11{fill:#F95824;}
	.st12{fill:#FF522A;}
	.st13{fill:#F9A217;}
	.st14{fill:#00C9DD;}
	.st15{fill:#E5523E;}
	.st16{fill:#FB5427;}
	.st17{fill:#FF9A03;}
	.st18{fill:#00C7DA;}
	.st19{fill:#16AFB4;}
	.st20{fill:#E6007E;}
	.st21{fill:#014A7F;}
	.st22{fill:#FE7701;}
	.st23{fill:#1C1C1C;}
	.st24{fill:#178FCC;}
	.st25{fill:#1F3A85;}
</style>
<g>
	<path class="st24" d="M15.1,45.5c0-10.3,0-20.7,0-31c0-0.9,0.1-1.8,0.4-2.6c0.3-1,1-1.5,2-1.5c0.7,0,1.3,0,2,0
		c16.4,0,32.9,0,49.3,0c0.1,0,0.1,0,0.2,0c2.3,0,3.1,0.8,3.1,3.1c0,2.7,0.1,5.3,0,8c0,1.4,0.3,2.3,1.3,3.3c4,3.8,7.9,7.8,11.8,11.7
		c0.6,0.6,1.1,1.2,1,2.2c-0.1,1.7-1.6,2.7-3.3,2c-0.4-0.2-0.9-0.4-1.2-0.8c-4.5-4.2-8.8-8.5-13-12.9c-0.9-0.9-1.3-1.9-1.4-3.2
		c-0.1-2.5-0.1-4.9-0.1-7.4c0-1.4,0-1.4-1.5-1.4c-4,0-8,0-11.9,0c-10.7,0-21.4,0-32.2,0c-2.2,0-1.8,0.1-1.8,1.8
		c0,18.9,0,37.9,0,56.8c0,0.7,0,1.3,0,2c0,0.6,0.3,0.8,0.8,0.8c0.2,0,0.3,0,0.5,0c14.9,0,29.8,0,44.8,0c0.1,0,0.3,0,0.4,0
		c0.7,0.1,1-0.2,1-1c0-3.9,0-7.7,0-11.6c0-4.2,0-8.4,0-12.7c0-0.9,0-1.8,0.7-2.4c0.6-0.5,1.4-1,2.3-0.6c1,0.4,1.5,1,1.6,2.1
		c0.1,1.2,0.1,2.4,0.1,3.6c0,6.9,0,13.9,0,20.8c0,1.4,0,2.7-0.1,4.1c-0.1,1.6-0.7,2.1-2.3,2.1c-17.2,0-34.4,0-51.6,0
		c-1.8,0-2.3-0.4-2.7-2.1c-0.2-0.6-0.2-1.3-0.2-2C15.1,66.3,15.1,55.9,15.1,45.5z"/>
	<path class="st24" d="M50.7,161c-10.9,0-21.9,0-32.8,0c-1.5,0-2.1-0.4-2.5-1.9c-0.2-0.7-0.3-1.4-0.3-2.1c0-16.2,0-32.4,0-48.6
		c0-0.4,0-0.9,0.1-1.3c0.5-2,1.1-2.5,3.2-2.6c2.9-0.2,5.7-0.2,8.6-0.1c1.1,0,1.9-0.3,2.7-1.1c3.6-3.7,7.3-7.3,10.9-10.9
		c0.5-0.5,1-1,1.6-1.5c1.1-0.8,2.4-0.7,3.2,0.2c0.7,0.8,0.7,2.3-0.1,3.1c-2.5,2.5-5,5-7.5,7.5c-2.2,2.2-4.3,4.3-6.4,6.5
		c-0.6,0.6-1.3,1-2.2,0.9c-2.6,0-5.3,0-7.9,0c-1.3,0-1.3,0-1.3,1.3c0,13.5,0,27.1,0,40.6c0,1.4,0,2.9,0,4.3c0,0.9,0.1,1,1,1
		c19.5,0,39.1,0,58.6,0c2.1,0,2.1,0,2.1-2.1c0-14.4,0-28.8,0-43.2c0-2.3,0-2-2-2c-7.6,0-15.3,0-22.9,0c-0.6,0-1.1-0.1-1.7-0.2
		c-1.2-0.4-1.7-1.2-1.6-2.5c0-1,0.6-1.6,1.7-1.8c1.3-0.3,2.7-0.3,4-0.3c7.9,0,15.8,0,23.8,0c0.9,0,1.9,0.1,2.7,0.7
		c0.4,0.4,0.7,0.8,0.7,1.4c0,1.6,0,3.3,0,4.9c0,15.7,0,31.4,0,47.1c0,1.6-1,2.5-2.5,2.5C72.6,161,61.6,161,50.7,161
		C50.7,161,50.7,161,50.7,161z"/>
	<path class="st24" d="M166.4,125.8c0,10.8,0,21.6,0,32.4c0,2.4-0.4,2.7-2.7,2.7c-15.9,0-31.7,0-47.6,0c-1.1,0-2.2,0-3.3,0
		c-2.1,0-3-0.9-3-3c0-2.9,0-5.8,0-8.7c0-1-0.3-1.7-1-2.3c-3.6-3.6-7.3-7.2-10.9-10.8c-0.5-0.5-0.9-1-1.4-1.6
		c-0.1-0.1-0.1-0.1-0.2-0.2c-0.7-1-0.7-2.6,0-3.3c0.8-0.8,2.5-0.8,3.4,0c1.8,1.5,3.4,3.2,5,4.8c3,2.9,5.9,5.9,8.9,8.8
		c0.6,0.6,0.9,1.3,0.8,2.1c0,2.6,0,5.2,0,7.8c0,1.8,0,1.8,1.7,1.8c14.6,0,29.2,0,43.8,0c1.9,0,1.9,0,1.9-1.9c0-18.8,0-37.5,0-56.3
		c0-0.8,0-1.6,0-2.4c0-0.6-0.3-0.8-0.8-0.8c-0.4,0-0.9,0-1.3,0c-14,0-28.1,0-42.1,0c-0.8,0-1.7,0-2.5,0c-0.5,0-0.7,0.2-0.7,0.7
		c0,0.8,0,1.6,0,2.5c0,7.2,0,14.5,0,21.7c0,0.5,0,1-0.1,1.5c-0.1,1-0.8,1.6-1.7,1.8c-1.2,0.2-1.9-0.1-2.4-1.1
		c-0.4-0.7-0.6-1.4-0.6-2.2c0-8.8,0-17.5,0-26.3c0-0.6,0.1-1.1,0.3-1.7c0.5-1,1.2-1.6,2.4-1.6c16.4,0,32.8,0,49.1,0
		c0.9,0,1.7,0,2.6,0c1.4,0,2.1,0.7,2.2,2.1c0.1,1.2,0,2.3,0,3.5C166.5,105.9,166.5,115.9,166.4,125.8
		C166.5,125.8,166.4,125.8,166.4,125.8z"/>
	<path class="st24" d="M131.3,10.3c10.8,0,21.6,0,32.5,0c2.4,0,2.8,0.3,2.8,2.8c0,16.9,0,33.9,0,50.8c0,2.1-0.9,2.9-3,2.9
		c-2.9,0-5.8,0-8.7,0c-0.9,0-1.5,0.3-2.1,0.9c-3.9,3.9-7.8,7.7-11.7,11.6c-0.9,0.9-1.8,1.6-3.1,1.4c-1.4-0.2-2.3-1.8-1.6-3
		c0.2-0.4,0.5-0.9,0.9-1.2c4.5-4.5,9-9,13.6-13.5c0.6-0.6,1.3-0.9,2.1-0.9c2.6,0,5.2,0,7.8,0c1.3,0,1.3,0,1.3-1.3
		c0-14.7,0-29.3,0-44c0-2.1,0.4-2-2-2c-19.2,0-38.4,0-57.6,0c-2.1,0-1.9-0.3-1.9,1.9c0,14.5,0,28.9,0,43.4c0,1.9,0,1.9,1.9,1.9
		c7.6,0,15.1,0,22.7,0c0.6,0,1.1,0,1.7,0.1c1.2,0.2,2,0.8,2.1,1.9c0.1,1-0.5,1.7-1.3,2.2c-0.5,0.4-1.1,0.5-1.8,0.5
		c-9,0-18.1,0-27.1,0c-1.8,0-2.8-1-2.8-2.8c0-17,0-34,0-51c0-2.4,0.4-2.8,2.8-2.8C109.5,10.3,120.4,10.3,131.3,10.3z"/>
	<path class="st25" d="M239.8,46.4c-0.2,6-4.7,11.6-10.9,13.6c-1,0.3-2,0.7-3,0.8c-0.1,0-0.1,0-0.2,0.1c-0.8,0.2-1.6,0.1-2.4,0.1
		c-2.7,0-5.4,0-8.1,0c-0.8,0-0.9,0.2-0.9,0.9c0,5.2,0,10.5,0,15.7c0,1,0,1-1,1c-2.7-0.1-5.3-0.1-8,0c-0.8,0-0.9-0.2-0.9-0.9
		c0-8.2,0-16.5,0-24.7c0-8.2,0-16.4,0-24.6c0-1.1-0.1-1,1-1c5.3,0,10.7-0.1,16,0c3.9,0.1,7.7,0.7,11.1,2.9c3.4,2.1,5.7,5.1,6.9,8.9
		c0.2,0.8,0.4,1.5,0.4,2.3l0,0C240,43,240.1,44.7,239.8,46.4L239.8,46.4z M222.8,52.5c0.2,0.1,0.3,0.1,0.5-0.1
		c2.8-0.3,4.9-1.8,6-4.2c2.4-5.2-0.1-12-7.6-12.3c-2.2-0.1-4.4,0-6.6,0c-0.6,0-0.8,0.2-0.7,0.7c0,5.1,0,10.2,0,15.3
		c0,0.6,0.2,0.8,0.7,0.8C217.7,52.6,220.2,52.9,222.8,52.5z"/>
	<path class="st25" d="M340.3,101.4c0.1,0.3,0.1,0.6,0.1,0.9c0,16.8,0,33.6,0,50.4c0,1.1,0,1.1-1.1,1.1c-2.1-0.1-4.2-0.1-6.3,0
		c-0.7,0-1.1-0.2-1-1c0-0.5-0.1-0.9-0.1-1.4c0-0.3,0.1-0.6-0.3-0.8c-0.3-0.1-0.5,0.2-0.7,0.4c-1,1-2.2,1.8-3.4,2.4
		c-1.4,0.7-2.8,1.1-4.4,1c-1.2-0.1-2.4,0.1-3.6-0.2l0,0c-3.7-0.5-6.3-2.5-8.1-5.6c-1.1-1.8-1.5-3.9-1.9-5.9
		c-0.6-3.6-0.2-7.1-0.4-10.7c-0.1-2.6,0.2-5.1,0.8-7.5c1.3-4.9,4.6-8.6,10.2-9.3c2.6-0.3,5.1-0.1,7.4,1c1,0.5,1.8,1.1,2.7,1.8
		c0.2,0.2,0.4,0.4,0.7,0.3c0.3-0.1,0.2-0.4,0.2-0.7c0-4.8,0-9.6-0.1-14.5c0-0.4,0-0.8,0-1.2c0-0.5,0.2-0.7,0.7-0.7
		c2.5,0,5,0.1,7.4,0.1c0.3,0,0.6,0,0.9,0C340.1,101.4,340.2,101.4,340.3,101.4z M324.4,123.2c-0.7,0.1-1.4,0.1-2.1,0.5
		c-2.1,1.1-3.3,2.7-3.5,5.1c-0.3,4-0.1,7.9-0.1,11.9c0,0.8,0.1,1.6,0.5,2.4c1,2.3,3.2,3.6,5.7,3.5c2.7-0.2,5-1.9,5.5-4.3
		c1-4.5,0.8-9,0.2-13.5C330.3,125.8,327.9,123.2,324.4,123.2L324.4,123.2L324.4,123.2z"/>
	<path class="st25" d="M297.3,79c-1.9-0.2-3.5-0.9-5-2c-2.8-2.1-4.2-4.9-4.9-8.2c-0.1-0.5-0.2-1.1-0.3-1.6l0-0.1L287,67
		c-0.1-0.4-0.1-0.8-0.1-1.2c0-4.1-0.1-8.2,0-12.4c0-3.1,0.8-6.1,2.6-8.7c2.1-3.2,5.1-4.7,8.9-5c2.3-0.2,4.6,0,6.7,1
		c1,0.5,1.8,1.2,2.7,1.7c0.2,0.1,0.4,0.4,0.7,0.3c0.3-0.1,0.2-0.5,0.2-0.8c-0.2-5.2,0-10.3-0.2-15.5c0-0.7,0.1-0.9,0.8-0.9
		c2.6,0,5.2,0,7.8,0c0.3,0,0.6-0.1,0.8,0.2c-0.1,0.1-0.1,0.2,0,0.3c0,6.4,0,12.9,0,19.3c0,10.5,0,20.9,0,31.4c0,1.8,0.2,1.5-1.5,1.5
		c-1.9,0-3.8-0.1-5.7,0.1c-0.7,0.1-1-0.3-1-0.9c-0.1-0.5-0.1-1-0.2-1.5c-0.1-0.3,0-0.7-0.4-0.8c-0.3-0.1-0.5,0.3-0.7,0.5
		c-1.7,1.7-3.7,2.8-6,3.2C300.7,79.4,299,79.3,297.3,79L297.3,79z M301.3,47.9c-0.5,0.1-1,0.2-1.5,0.4c-2.4,1.1-3.4,3.2-3.5,5.6
		c-0.1,3.6,0,7.2-0.1,10.8c0,1.2,0.3,2.3,0.8,3.3c1.1,2.2,3.3,3.4,5.7,3c3.5-0.5,5.5-2.5,5.7-6.1c0.2-3.9,0.4-7.8-0.1-11.7
		c-0.4-2.9-2.2-4.9-5.1-5.4l-0.1-0.1l-0.1,0c-0.4,0-0.8,0-1.2-0.1c0,0,0,0,0,0C301.7,47.8,301.6,47.8,301.3,47.9L301.3,47.9
		L301.3,47.9z"/>
	<path class="st25" d="M391.7,126c0.9-4.8,3.2-8.6,8-10.2c3.8-1.2,7.7-1.2,11.2,1.2c0.5,0.3,1,0.8,1.5,1.2c0.1,0.1,0.2,0.3,0.4,0.2
		c0.2-0.1,0.1-0.3,0.1-0.5c0-1.9,0-3.8,0-5.7c0-3.4,0-6.7,0-10.1c0-0.7,0.2-0.9,0.8-0.9c2.6,0,5.2,0,7.8,0c0.1,0,0.2,0,0.3,0
		c0.5,0,0.5,0.3,0.5,0.6c0,0.8,0,1.5,0,2.3c0,15.9,0,31.8,0,47.7c0,1.9,0,1.9-1.9,1.9c-1.7,0-3.5,0-5.2,0c-0.6,0-0.9-0.2-1-0.8
		c-0.1-0.7-0.3-1.3-0.5-2c-0.1-0.6-0.3-0.6-0.6-0.2c-1.2,1.5-2.8,2.4-4.5,3.1c-0.4,0.2-0.8,0.4-1.2,0.4c-3.7,0.3-7.3,0.3-10.5-1.9
		c-2.3-1.6-3.6-3.8-4.6-6.3c-0.9-2.3-0.8-4.7-0.9-7.1c-0.2-4.2,0-8.3,0.2-12.5C391.5,126.5,391.6,126.3,391.7,126L391.7,126
		L391.7,126z M400.7,129.2c0,0.2,0,0.5,0,0.7l0,0c0,3.4,0,6.8,0,10.2c0,2,0.7,3.8,2.2,5.1c1.9,1.6,4.2,1.7,6.4,0.7
		c2.2-1,3.4-2.9,3.5-5.3c0.1-3.7,0.1-7.4,0-11.1c-0.1-3.4-2.5-6-5.7-6.2l0-0.1l0,0.1c-2-0.1-3.6,0.5-4.9,2.1
		C401.3,126.5,400.9,127.7,400.7,129.2L400.7,129.2C400.7,129.2,400.7,129.2,400.7,129.2z"/>
	<path class="st25" d="M222.5,111c-1,0-2.1,0-3.1,0c-0.2,0-0.4-0.1-0.6,0.1c-3.5,0.8-5.2,3.3-5.8,6.4c-0.1,0.6-0.2,1.1-0.2,1.7
		c0,6.1,0,12.1,0,18.2c0,2,0.4,4,1.7,5.6c1.9,2.5,4.6,3.2,7.6,2.9c3-0.3,5.1-2,6.4-4.6c0.5-1.1,0.5-2.4,0.6-3.6c0-0.3,0-0.6,0-0.9
		c0.1,0,0.1-0.1,0.1-0.2c0.1-0.1,0.2-0.1,0.2-0.2c0.1,0.1,0.1,0,0.2,0c2.7,0,5.3,0.1,8,0.1c0.2,0,0.4,0,0.6,0
		c0.3,0.1,0.3,0.4,0.3,0.6c0.1,5.8-1.5,11-6.5,14.5c-2,1.4-4.3,2.3-6.8,2.8c-0.1,0-0.1,0-0.2,0.1c-5.1,0.5-10.2,0.3-14.7-2.7
		c-4.4-2.9-6.7-7.1-6.9-12.4c-0.3-7.4-0.3-14.8,0-22.2c0.1-4.3,1.7-8.1,5-11c2.5-2.3,5.6-3.4,9-3.8c2.9-0.4,5.9-0.4,8.7,0.2
		c6,1.3,10.8,5.4,12.1,12.2c0.3,1.5,0.4,3.1,0.4,4.6c0,0.5-0.1,0.7-0.6,0.7c-2.7,0-5.4,0-8.1,0c-0.5,0-0.6-0.1-0.6-0.6
		c0-1.1,0-2.2-0.4-3.2c-0.9-2.8-2.7-4.7-5.7-5.2C222.9,111.1,222.7,111,222.5,111L222.5,111z"/>
	<path class="st25" d="M463.4,116c0.1,0.3,0.1,0.6,0,0.9l0,0l0,0c-0.1,11.5-0.1,23.1,0,34.6c0,0.7,0.4,1.6-0.2,2.1
		c-0.5,0.4-1.3,0.1-2,0.1c-1.6,0-3.1,0-4.7,0c-0.8,0-1.2-0.3-1.3-1.1c-0.1-0.5-0.3-1-0.2-1.6c0-0.2,0.1-0.4-0.1-0.5
		c-0.2-0.1-0.4,0.1-0.6,0.3c-0.9,0.8-1.7,1.6-2.8,2.2c-1.8,1-3.6,1.6-5.7,1.5c-0.8-0.1-1.6,0-2.4-0.1l0-0.1l0,0.1
		c-4.9-0.5-8-3.3-9.8-7.7c-0.4-1.1-0.8-2.2-0.8-3.4l0-0.1c-0.4-2.7-0.3-5.4-0.4-8c-0.1-3.2,0-6.4,0.5-9.6c0.9-5.7,4.9-9.9,10.3-10.5
		c3.2-0.4,6.2-0.2,8.9,1.8c0.8,0.6,1.5,1.2,2.2,1.8c0.2,0.1,0.3,0.4,0.6,0.2c0.2-0.1,0.1-0.3,0.1-0.5c0-0.2,0-0.4,0-0.6
		c0.2-1.8,0.5-2.2,2.3-2.2c1.9,0,3.8,0,5.7,0C463.1,115.8,463.3,115.8,463.4,116L463.4,116L463.4,116z M454,129.3
		c-0.4-2.1-1.1-4-3.1-5.2c-0.9-0.6-1.9-0.8-2.9-0.9l0,0l0,0c-0.1,0-0.3,0-0.4,0c-3.1-0.2-5.8,3.3-5.6,6c0.2,3.9,0,7.7,0,11.6
		c0,2.7,2,5.1,4.7,5.6c3.6,0.7,7-1.9,7.4-5.7C454.3,137,454.2,133.2,454,129.3L454,129.3L454,129.3z"/>
	<path class="st25" d="M373.4,115.8c2.3-0.1,4.7,0,7,0c0.1,0,0.2,0,0.2,0c0.6-0.1,0.7,0.2,0.7,0.7c0,0.7,0,1.3,0,2
		c0,11.2,0,22.5,0,33.7c0,1.9,0.2,1.6-1.6,1.6c-1.9,0-3.8-0.1-5.7,0.1c-0.7,0.1-0.9-0.3-1-0.8c-0.1-0.6-0.2-1.3-0.4-1.9
		c-0.2-0.5-0.4-0.5-0.7-0.1c-1.1,1.3-2.6,2.1-4.1,2.8c-0.9,0.4-1.9,0.7-2.9,0.7c-2.2,0-4.4,0.1-6.5-0.7c-3.9-1.5-6.1-4.3-7.3-8.2
		c-0.3-1.1-0.5-2.2-0.7-3.2l0.1,0c0,0-0.1,0-0.1,0c0-4.5-0.1-9.1,0-13.6c0-2.9,0.7-5.6,2.2-8c1.9-3.2,4.8-5,8.5-5.4
		c1.4-0.2,2.7-0.2,4.1-0.1c2.6,0.3,4.7,1.5,6.5,3.2c0.3,0.3,0.5,0.7,0.9,0.6c0.4-0.1,0.3-0.6,0.4-1
		C373.1,117.4,373.2,116.6,373.4,115.8L373.4,115.8L373.4,115.8z M371.9,130c-0.3-1.3-0.3-2.6-1-3.7c-1.2-1.8-2.7-3-5-3
		c-2.3-0.1-4.1,0.8-5.2,2.8c-0.7,1.2-1,2.4-1,3.8c0,3.3,0,6.7,0,10c0,0.9,0.1,1.8,0.4,2.7c0.5,1.3,1,2.5,2.3,3.2
		c2.6,1.4,5.4,0.8,7.5-0.8c0.9-0.7,1.6-1.7,1.8-2.9c0.2-1.2,0.3-2.5,0.3-3.8c0-2.7,0-5.5,0-8.2C372,130.1,372,130.1,371.9,130
		C372,130.1,371.9,130.1,371.9,130z"/>
	<path class="st25" d="M340.7,39.9c0.6-0.1,1.2-0.1,1.9-0.2c0.2,0.1,0.4,0.1,0.6,0c1.2,0.1,2.4,0.1,3.6,0.4
		c5.8,1.2,9.3,4.8,10.8,10.4c0.3,1,0.4,2,0.4,3.1c0,2.3,0,4.6,0.1,6.8c0,0.3,0.1,0.6-0.1,0.8l-0.1,0l0,0.1c-0.2,0-0.5,0-0.7,0
		c-0.2-0.1-0.4-0.1-0.6,0c-5.9,0-11.8,0-17.7,0c-1.8,0-1.8,0-1.8,1.8c0,1,0,2.1,0.1,3.1c0.6,4.4,4.8,6.8,8.9,5.1
		c1.3-0.5,2.2-1.5,2.6-2.8c0.3-0.8,0.6-1.6,0.7-2.5c0-0.6,0.3-0.7,0.8-0.7c2.4,0,4.9,0.1,7.3,0.1c0.6,0,0.6,0.3,0.6,0.7
		c0,5.2-2.2,9.1-6.9,11.4c-5.8,2.9-11.6,2.5-17.1-0.8c-2.4-1.4-4-3.7-5.1-6.4c-0.2-0.6-0.4-1.1-0.6-1.7l0,0
		c-0.4-1.6-0.4-3.2-0.5-4.8c-0.1-2.8-0.4-5.7,0-8.5c0.1-0.1,0.1-0.2,0-0.3c0.1-1.4,0.1-2.7,0.4-4.1
		C329.6,44.8,334.1,40.7,340.7,39.9L340.7,39.9C340.6,39.9,340.7,39.9,340.7,39.9z M343.7,47.1c-4-0.2-6.8,3-6.8,6.8
		c0,0.4,0.1,0.7,0.6,0.7c3.8,0,7.6,0,11.3,0c0.5,0,0.6-0.2,0.5-0.6c-0.1-0.9-0.3-1.7-0.6-2.6C347.9,49,346.4,47.5,343.7,47.1
		L343.7,47.1L343.7,47.1z"/>
	<path class="st25" d="M482.1,115.9c0.6,0,0.7,0.5,0.8,0.9c0.1,0.5,0.2,1.1,0.2,1.6c0,0.3,0,0.6,0.3,0.7c0.3,0.1,0.5-0.2,0.6-0.3
		c1.2-1.2,2.5-2.1,4.1-2.7c2-0.8,4-0.9,6.1-0.8c2.6,0.1,5,1,7.1,2.6c2,1.6,2.8,3.8,3.6,6.1c0.1,0.3,0.1,0.5,0.2,0.8l0,0
		c0.4,1.7,0.4,3.4,0.4,5.1c0,7.3,0,14.6,0,22c0,2,0,2-2,2c-2.2,0-4.3,0-6.5,0.1c-0.8,0-1-0.2-1-0.9c0-7.7,0-15.5,0-23.2
		c0-1.8-0.5-3.4-1.7-4.8c-0.9-1-2-1.5-3.3-1.7l0-0.1l0,0.1c-0.3,0-0.6,0-0.9,0c0,0,0-0.1,0-0.1l0,0.1c-3.9,0.2-5.8,3.1-6.1,6.3
		c-0.1,1.3-0.1,2.7-0.1,4c0,6.5-0.1,13,0.1,19.5c0,0.7-0.2,0.9-0.9,0.9c-2.5-0.1-5,0-7.5,0c-1,0-1,0-1-1c0-6.1,0-12.3,0-18.4
		c0-5.8,0-11.7,0-17.5c0-1.1,0-1.1,1.1-1.1C477.8,115.8,479.9,115.8,482.1,115.9L482.1,115.9L482.1,115.9z"/>
	<path class="st25" d="M534.2,154.4c-0.2,0-0.3,0.1-0.5,0.1c0,0,0-0.1,0-0.1l0,0.1c-2.2,0.1-4.3,0.2-6.4-0.1l0,0
		c-2.1-0.4-4.1-1.2-5.8-2.4c-2.7-1.8-4.4-4.4-5.4-7.5c-0.5-1.7-0.7-3.4-0.7-5.2c0-3.4-0.1-6.7,0-10.1c0.3-6.9,4.6-12.4,11.8-13.7
		c3.3-0.6,6.6-0.5,9.9,0.6c4.6,1.7,7.4,4.9,8.7,9.6c0.2,0.8,0.3,1.6,0.3,2.4l0,0c0.3,1.3,0.2,2.6,0.2,3.9c0,2.8,0,5.5,0,8.3
		c0,2.3-0.6,4.5-1.6,6.6c-1.7,3.4-4.4,5.6-8,6.9C535.8,154,535,154.3,534.2,154.4C534.2,154.4,534.2,154.4,534.2,154.4z
		 M524.5,130.3L524.5,130.3L524.5,130.3c0,0.4-0.1,0.8-0.1,1.1l0,0.1c0,2.7,0,5.3,0,8c0,1.2,0.3,2.5,0.7,3.6c1.3,3.3,5.4,4.7,8.5,3
		c2.1-1.2,3-3.1,3.1-5.4c0.2-3.8,0.2-7.7,0-11.5c-0.1-1.9-0.8-3.5-2.3-4.8c-1.3-1.1-2.7-1.3-4.3-1.2c-1.9,0-3.3,0.9-4.4,2.4
		C524.9,127,524.6,128.6,524.5,130.3z"/>
	<path class="st25" d="M259.9,79c-5.4-0.6-10.1-4-11.9-9.5c-0.6-1.8-0.9-3.5-0.8-5.4c0.1-3.4,0-6.9,0-10.3c0-5.7,3.5-10.8,8.8-13
		c0.8-0.3,1.6-0.7,2.5-0.7l0,0c2.6-0.6,5.3-0.6,7.9-0.1c5.7,1.1,9.3,4.6,11,10c0.3,0.9,0.4,1.8,0.4,2.7l0,0c0.3,1.1,0.2,2.2,0.2,3.3
		c0,3.7,0.2,7.4-0.4,11.1c-0.8,4.9-3.5,8.4-8,10.6c-2.8,1.4-5.8,1.6-8.9,1.3l0-0.1l0,0.1C260.5,79.2,260.2,79.1,259.9,79L259.9,79z
		 M256.4,54.5L256.4,54.5L256.4,54.5c0,0.3,0,0.5,0,0.8l0,0c0,3.4-0.2,6.8,0.2,10.2c0.4,3.9,3.7,6.5,7.4,5.7c2.7-0.6,4.6-3,4.8-6
		c0.1-3.6,0.2-7.2,0-10.7c-0.1-1.5-0.3-3-1.1-4.4c-0.8-1.4-1.9-2.2-3.5-2.3l0-0.1l0,0.1c-0.2,0-0.3-0.1-0.5-0.1l0,0
		c-0.7-0.3-1.4,0.1-2.1,0.2c-2.1,0.3-3.5,1.6-4.3,3.5C256.7,52.3,256.6,53.4,256.4,54.5z"/>
	<path class="st25" d="M277.5,115.8c0.5,0,0.5,0.4,0.5,0.7c0,0.9,0,1.8,0,2.8c-0.1,6.9,0.1,13.8-0.1,20.7c0,1.7,0.6,3.2,1.5,4.6
		c1.1,1.6,3.9,2.3,6,1.6c2.8-1,4.6-3.4,4.6-6.7c0-7.5,0-15.1,0-22.6c0-0.3-0.1-0.7,0.1-1l0.1,0l0-0.1c2.9-0.1,5.8,0.1,8.7,0
		c0.2,0,0.3,0,0.4,0.2l0,0l0,0c0.1,0.3,0.1,0.6,0,0.9l0,0l0,0c-0.1,11.5-0.1,23.1,0,34.6c0,0.2,0,0.3,0,0.5c0,1.8,0,1.8-1.7,1.7
		c-1.7,0-3.4-0.1-5.1,0c-0.8,0-1.2-0.4-1.4-1.1c-0.1-0.5-0.3-1-0.2-1.6c0-0.2,0.1-0.4-0.1-0.5c-0.2-0.1-0.4,0-0.6,0.2
		c-0.9,0.9-1.9,1.8-3.1,2.4c-1.4,0.8-2.9,1.4-4.5,1.3c-1.5,0-2.9,0.1-4.4-0.2c-4.8-0.8-7.6-3.8-8.7-8c-0.3-1-0.5-2-0.6-3.1l0-0.1
		l-0.1-0.1c-0.1-0.4-0.1-0.8-0.1-1.2c0-8.4,0-16.7,0-25.1c0-1,0-1,1-1c2.5,0,5.1,0,7.6,0C277.3,115.8,277.4,115.8,277.5,115.8z"/>
	<path class="st25" d="M368,40.4c2.4-0.1,4.8,0.1,7.2,0.1c0.5,0,0.7,0.3,0.8,0.6c0.3,0.8,0.3,1.7,0.3,2.5c0,0.2-0.1,0.5,0.2,0.6
		c0.2,0.1,0.4-0.1,0.6-0.2c0.3-0.2,0.5-0.5,0.8-0.8c2.5-2.9,5.6-3.9,9.3-3.4c0.4,0.1,0.6,0.2,0.6,0.7c0,2.5,0,5,0,7.5
		c0,0.4-0.1,0.5-0.5,0.5c-1.1,0-2.2,0-3.2,0c-3.4,0.1-6.5,2.1-6.7,6.2c-0.2,3.9-0.1,7.7-0.2,11.6c0,3.7,0,7.5,0.1,11.2
		c0,0.7-0.2,0.9-0.9,0.9c-2.5-0.1-5-0.1-7.5,0c-0.8,0-0.9-0.3-0.9-0.9c0-1.2,0.1-2.3,0.1-3.5c0-11,0-21.9,0-32.9
		C367.8,40.9,367.8,40.7,368,40.4L368,40.4L368,40.4z"/>
	<path class="st25" d="M257.8,115.9c0.2,0.3,0.1,0.7,0.1,1c0,11.9,0,23.9,0,35.8c0,1.1,0,1.1-1.1,1.1c-2.4,0-4.8,0-7.2,0
		c-1.1,0-1.1,0-1.1-1.1c0-4.8,0-9.6,0-14.5c0-6.9,0-13.9,0-20.8c0-0.3,0-0.7,0-1c0-0.6,0.2-0.7,0.7-0.7c2.5,0,5,0.1,7.5,0.1
		c0.3,0,0.5,0,0.8,0C257.6,115.8,257.7,115.8,257.8,115.9z"/>
	<path class="st25" d="M258.3,105.5c0.1,3.7-2.3,5.1-5.2,5.3c-2.9,0.2-5.2-2.3-5.2-5.4c0-2.9,2.3-5,5.3-5.1
		C255.6,100.3,258.5,102.3,258.3,105.5z"/>
	<path class="st24" d="M238.1,136.4c-0.2,0-0.4,0-0.6,0C237.8,136.4,238,136.3,238.1,136.4z"/>
	<path class="st24" d="M343.1,39.7c-0.2,0.2-0.4,0.1-0.6,0C342.7,39.6,342.9,39.6,343.1,39.7z"/>
	<path class="st24" d="M356.5,61.2c0.2-0.1,0.4-0.1,0.6,0C356.9,61.3,356.7,61.3,356.5,61.2z"/>
	<path class="st24" d="M218.8,111.1c0.2-0.2,0.4-0.1,0.6-0.1C219.2,111.1,219,111.1,218.8,111.1z"/>
	<path class="st24" d="M380.6,115.9c-0.1,0-0.2,0-0.2,0C380.4,115.8,380.5,115.8,380.6,115.9z"/>
	<path class="st24" d="M257.8,115.9c-0.1,0-0.2,0-0.3,0C257.6,115.7,257.7,115.7,257.8,115.9z"/>
	<path class="st24" d="M224.9,154.4c0.1,0,0.1,0,0.2-0.1C225.1,154.5,225,154.5,224.9,154.4z"/>
	<path class="st24" d="M229.2,136.6c0,0.1,0,0.1-0.1,0.2C229.1,136.7,229.1,136.6,229.2,136.6z"/>
	<path class="st24" d="M317.9,26.2c-0.1-0.1-0.1-0.2,0-0.3C318,26,318,26.1,317.9,26.2z"/>
	<path class="st24" d="M327.8,55c0.1,0.1,0.1,0.2,0,0.3C327.8,55.2,327.8,55.1,327.8,55z"/>
	<path class="st24" d="M340.3,101.4c-0.1,0-0.2,0-0.3,0C340.1,101.3,340.2,101.2,340.3,101.4z"/>
	<path class="st24" d="M225.7,60.8c0.1,0,0.1,0,0.2-0.1C225.9,60.8,225.8,60.9,225.7,60.8z"/>
	<path class="st24" d="M421.8,101.4c-0.1,0-0.2,0-0.3,0C421.6,101.3,421.7,101.3,421.8,101.4z"/>
	<path class="st24" d="M277.5,115.8c-0.1,0-0.2,0-0.3,0C277.3,115.7,277.4,115.8,277.5,115.8z"/>
	<polygon class="st24" points="260.8,79.1 260.8,79.1 260.9,79.1 	"/>
	<polygon class="st24" points="534.2,154.4 534.2,154.4 534.2,154.4 	"/>
	<polygon class="st24" points="287,67 287.1,67.1 287,67.2 287,67.1 	"/>
	<polygon class="st24" points="340.7,39.9 340.6,39.9 340.6,39.9 340.6,39.8 	"/>
	<polygon class="st24" points="328.3,68.6 328.3,68.6 328.3,68.6 	"/>
	<polygon class="st24" points="258.6,40.1 258.5,40.1 258.6,40.1 	"/>
	<polygon class="st24" points="290.1,115.8 290.1,115.9 290,115.9 290,115.8 	"/>
	<polygon class="st24" points="357.8,61.2 357.8,61.2 357.9,61.2 357.9,61.2 	"/>
	<polygon class="st24" points="373.4,115.8 373.3,115.9 373.3,115.9 373.3,115.8 	"/>
	<polygon class="st24" points="368,40.4 368,40.5 367.9,40.5 367.9,40.4 	"/>
	<polygon class="st24" points="239.8,41.4 239.8,41.4 239.8,41.4 	"/>
	<polygon class="st24" points="482.1,115.9 482.1,115.9 482.1,115.8 482.1,115.8 	"/>
	<polygon class="st24" points="299.2,116 299.2,116 299.2,116 299.2,116 	"/>
	<polygon class="st24" points="463.4,116 463.3,116 463.4,116 463.4,116 	"/>
	<polygon class="st24" points="299.2,117 299.2,117 299.2,116.9 299.2,117 	"/>
	<polygon class="st24" points="463.4,117 463.3,117 463.4,116.9 463.4,117 	"/>
	<polygon class="st24" points="490.1,123.2 490.1,123.2 490.2,123.2 490.1,123.3 	"/>
	<polygon class="st24" points="491,123.3 491.1,123.2 491.1,123.3 	"/>
	<polygon class="st24" points="277.9,52.8 277.9,52.8 278,52.8 	"/>
	<path class="st24" d="M505.1,124.8L505.1,124.8L505.1,124.8z"/>
	<polygon class="st24" points="391.7,126 391.7,126.1 391.6,126.1 391.6,126.1 	"/>
	<polygon class="st24" points="546,128.2 546,128.2 546,128.2 	"/>
	<path class="st24" d="M229.6,136.3c0,0.1-0.1,0.1-0.2,0C229.5,136.3,229.5,136.3,229.6,136.3z"/>
	<polygon class="st24" points="259.9,79 259.9,79 259.9,79 	"/>
	<polygon class="st24" points="239.8,46.4 239.8,46.3 239.8,46.4 	"/>
	<polygon class="st24" points="350.3,142.4 350.4,142.5 350.3,142.5 350.3,142.5 	"/>
	<polygon class="st24" points="268.7,143.2 268.7,143.2 268.7,143.3 268.7,143.3 	"/>
	<polygon class="st24" points="432.7,143.4 432.7,143.5 432.7,143.4 	"/>
	<polygon class="st24" points="297.3,79 297.3,79 297.3,79 	"/>
	<polygon class="st24" points="319.4,154.4 319.5,154.4 319.5,154.4 	"/>
	<polygon class="st24" points="443.3,154.5 443.4,154.5 443.4,154.5 	"/>
	<polygon class="st24" points="527.2,154.4 527.2,154.4 527.2,154.4 	"/>
	<polygon class="st24" points="533.6,154.5 533.6,154.4 533.7,154.5 	"/>
	<path class="st24" d="M222.5,111L222.5,111L222.5,111z"/>
	<path class="st24" d="M222.8,52.5c0.1-0.1,0.3-0.1,0.5-0.1C223.1,52.5,223,52.5,222.8,52.5z"/>
	<polygon class="st24" points="324.5,123.2 324.4,123.3 324.4,123.2 324.4,123.2 	"/>
	<polygon class="st24" points="303.3,47.9 303.2,47.9 303.1,47.9 303.2,47.8 	"/>
	<polygon class="st24" points="301.9,47.8 301.9,47.9 301.9,47.8 	"/>
	<polygon class="st24" points="301.4,47.9 301.4,47.9 301.3,47.9 301.3,47.8 	"/>
	<polygon class="st24" points="407.1,123.3 407.1,123.3 407,123.3 407.1,123.2 	"/>
	<polygon class="st24" points="400.7,129.1 400.8,129.2 400.7,129.2 400.7,129.2 	"/>
	<polygon class="st24" points="400.7,129.9 400.7,129.9 400.7,129.9 	"/>
	<polygon class="st24" points="448,123.2 447.9,123.3 447.9,123.2 447.9,123.2 	"/>
	<polygon class="st24" points="454,129.4 454,129.3 454.1,129.3 	"/>
	<path class="st24" d="M371.9,130.1c0,0,0-0.1,0-0.1C371.9,130.1,372,130.1,371.9,130.1C372,130.1,372,130.1,371.9,130.1z"/>
	<polygon class="st24" points="343.7,47.1 343.7,47.1 343.7,47.1 343.7,47.1 	"/>
	<polygon class="st24" points="524.5,130.3 524.5,130.3 524.5,130.3 	"/>
	<polygon class="st24" points="524.4,131.4 524.5,131.4 524.4,131.4 	"/>
	<polygon class="st24" points="256.4,55.3 256.4,55.3 256.4,55.3 	"/>
	<polygon class="st24" points="256.4,54.5 256.5,54.5 256.4,54.6 256.4,54.5 	"/>
	<polygon class="st24" points="264.1,47.7 264.1,47.7 264.1,47.7 	"/>
	<polygon class="st24" points="263.5,47.6 263.5,47.6 263.5,47.6 	"/>
</g>
</svg>
