<?xml version="1.0" encoding="utf-8"?>
<!-- Generator: Adobe Illustrator 27.4.1, SVG Export Plug-In . SVG Version: 6.00 Build 0)  -->
<svg version="1.1" id="Layer_1" xmlns="http://www.w3.org/2000/svg" xmlns:xlink="http://www.w3.org/1999/xlink" x="0px" y="0px"
	 viewBox="0 0 722.2 165.3" style="enable-background:new 0 0 722.2 165.3;" xml:space="preserve">
<style type="text/css">
	.st0{fill:#FFFFFF;}
	.st1{fill:#FF5430;}
	.st2{fill:#00C9DA;}
	.st3{fill:#FF9C00;}
	.st4{fill:#00CBD8;}
	.st5{fill:#0077C4;}
	.st6{fill:#00CADF;}
	.st7{fill:#03C7D5;}
	.st8{fill:#0075C4;}
	.st9{fill:#FF9F00;}
	.st10{fill:#00C7DE;}
	.st11{fill:#F95824;}
	.st12{fill:#FF522A;}
	.st13{fill:#F9A217;}
	.st14{fill:#00C9DD;}
	.st15{fill:#E5523E;}
	.st16{fill:#FB5427;}
	.st17{fill:#FF9A03;}
	.st18{fill:#00C7DA;}
	.st19{fill:#16AFB4;}
	.st20{fill:#E6007E;}
	.st21{fill:#014A7F;}
	.st22{fill:#FE7701;}
	.st23{fill:#1C1C1C;}
	.st24{fill:#178FCC;}
	.st25{fill:#1F3A85;}
</style>
<g>
	<path class="st22" d="M255.6,41.1c-1.6,1-3.1,1.8-4.8,2.5c-1.8,0.8-3.7,1.6-5.4,2.5c-4.8,2.6-9.7,5.1-14.4,8
		c-4.5,2.9-8.9,5.9-13.1,9.2c-1.8,1.4-3.6,2.6-5.3,4.2c-4,3.7-8,7.4-11.6,11.5c-3.8,4.4-7.4,9-10.6,13.9c-3.9,6-7.3,12.2-10.2,18.7
		c-2.7,5.9-4.7,12.1-6.6,18.3c-1.3,4.3-2,8.8-2.5,13.3c-0.1,0.9-0.2,1.9-0.3,2.8c0,0.1-0.1,0.3-0.2,0.4c-0.2,0.1-0.4-0.1-0.5-0.2
		c-1.2-1.3-2.4-2.7-3.7-4c-4.1-4.2-8.6-7.9-13.4-11.2c-5.5-3.9-11.3-7.5-17.4-10.5c-2.5-1.2-4.9-2.5-7.4-3.5
		c-5.1-2-10.1-3.9-15.4-5.4c-4.8-1.4-9.7-2.3-14.6-3.1c-4.7-0.8-9.4-1.2-14.2-1.2c-4.7,0-9.4-0.2-14.1,0.1c-3.6,0.2-7.2,0.5-10.7,1
		c-6.3,0.9-12.7,1.8-18.9,3.2c-0.1,0-0.3,0.1-0.4,0c-0.1,0-0.2-0.1-0.2-0.1c0-0.1,0-0.2,0.1-0.3c0.2-0.2,0.5-0.3,0.8-0.4
		c2.4-0.5,4.8-1.4,7.2-2.1c3.5-1,7.1-2.1,10.7-2.8c4.3-0.8,8.6-1.6,13-2.3c5.6-0.9,11.2-1.3,16.8-1.6c4.4-0.2,8.8-0.2,13.2,0.2
		c5.1,0.4,10.2,0.9,15.3,2c4,0.9,8,1.6,12,2.8c3.1,0.9,6.2,1.8,9.2,3.1c0.6,0.3,1.2,0.5,2,0.4c-0.4-0.6-1-0.8-1.5-1.1
		c-3.4-1.9-6.9-3.6-10.4-5.2c-6.3-2.8-12.8-4.9-19.4-6.6c-6.1-1.6-12.4-2.6-18.7-3.3c-6.4-0.7-12.8-1-19.3-0.8
		c-6.2,0.3-12.4,0.6-18.4,2c-3,0.7-6.1,1-9.1,1.6c-1.6,0.3-3.1,0.7-4.7,1.1c-2.4,0.7-4.8,1.4-7.2,2c-0.3,0.1-0.6,0.2-1,0.1
		c0.1-0.4,0.5-0.4,0.8-0.5c5.1-2.1,10.4-3.8,15.7-5.4c2.4-0.8,4.8-1.5,7.2-2.1c3.3-0.8,6.6-1.4,10-2.1c7.2-1.3,14.5-2,21.9-2.2
		c5.3-0.1,10.6,0.1,15.8,0.7c2.6,0.3,5.3,0.4,7.9,0.9c5.3,1,10.7,1.8,16,3.4c2.5,0.7,5,1.6,7.5,2.4c0.3,0.1,0.7,0.2,1,0.3
		c0.1,0,0.2,0,0.3-0.1c0-0.1,0-0.2-0.1-0.3c-0.2-0.3-0.6-0.4-0.9-0.6c-5.2-3-10.7-5.3-16.3-7.5c-4.7-1.8-9.5-3.2-14.4-4.5
		c-6.4-1.7-12.8-2.5-19.3-3.3c-7-0.8-14-0.8-20.9-0.4c-6.8,0.4-13.5,1.4-20.1,2.8c-4.1,0.9-8.2,2-12.3,3.4c-1.5,0.5-3.1,0.9-4.6,1.4
		c-1.7,0.5-3.3,1.2-4.9,1.9C20,88.8,19.6,89,18.9,89c1.2-1,2.4-1.5,3.6-2.1c2.8-1.2,5.7-2.4,8.5-3.7c2-0.9,4-1.5,6-2.2
		c3-1,6-2,9-2.9C50,77,54,76.1,58,75.5c6.3-1,12.5-1.8,18.9-2.1c5-0.2,9.9,0,14.8,0.2c4.3,0.2,8.6,0.9,12.9,1.5
		c2.4,0.4,4.7,0.8,7.1,1.2c3.5,0.7,7,1.6,10.4,2.7c3.7,1.2,7.5,2.3,11.2,3.8c6.2,2.6,12.3,5.4,18.2,8.8c0,0,0.1,0.1,0.1,0.1
		c1,0.5,1,0.5,1.5-0.5c0.2-0.4,0.4-0.9,0.6-1.3c2.1-5,4.8-9.6,7.5-14.3c3.4-5.6,7.2-10.9,11.3-15.9c4-4.9,8.4-9.5,13-13.8
		c4.2-3.9,8.6-7.4,13.2-10.8c4-3,8.2-5.7,12.6-8.1c5.4-3,10.9-5.9,16.7-8c2.7-1,5.3-2.3,8.1-3.1c6-1.7,12-3.6,18.3-4.7
		c0.7-0.1,1.5-0.2,2.2-0.3c0.2,0,0.4-0.1,0.5,0.2c0,0.3-0.2,0.3-0.4,0.3c-2.6,0.6-5.1,1.6-7.7,2.4c-7.9,2.4-15.4,5.7-22.7,9.5
		c-5.1,2.6-9.9,5.7-14.5,9c-4.9,3.6-9.6,7.4-14,11.6c-5.4,5.2-10.4,10.8-14.8,16.8c-2.4,3.3-4.7,6.7-6.8,10.2
		c-1.9,3.2-3.7,6.5-5.4,9.8c-0.8,1.6-1.6,3.3-2.4,5.1c0.7-0.2,0.8-0.7,1.1-1c0.3-0.3,0.5-0.7,0.8-1.1c3.2-4.8,6.7-9.3,10.6-13.5
		c2.4-2.6,4.8-5.2,7.4-7.6c3.2-3,6.4-6,9.9-8.6c3.8-2.9,7.7-5.7,11.7-8.3c5.1-3.2,10.2-6.2,15.7-8.7c4.4-2,8.8-3.7,13.3-5.4
		c6.1-2.2,12.3-4.2,18.6-5.8c0.1,0,0.3,0,0.5-0.1c-0.2,0.4-0.6,0.5-1,0.6c-4.2,1.6-8.4,3.1-12.5,4.9c-5.5,2.5-10.9,5.1-16.2,8.1
		c-2.4,1.4-4.7,3-7.1,4.5c-3.5,2.3-6.9,4.8-10.1,7.4c-6.1,4.9-11.8,10.2-16.9,16c-5.2,5.9-9.8,12.3-13.9,19.1
		c-2.4,4-4.5,8.2-6.4,12.5c-0.1,0.2-0.2,0.3-0.1,0.6c0.5-0.2,0.6-0.7,0.9-1c0.3-0.4,0.6-0.8,0.9-1.2c2.3-3.6,5-7,7.6-10.3
		c1-1.3,2.2-2.5,3.2-3.7c3.6-4,7.4-7.9,11.4-11.4c2.8-2.4,5.7-4.7,8.7-6.9c3.6-2.7,7.3-5,11.1-7.4c1.4-0.9,2.8-1.7,4.3-2.5
		c5.4-2.9,10.9-5.8,16.6-8.2c5.2-2.2,10.5-4.1,15.8-5.9C254.8,41.1,255.1,40.9,255.6,41.1z"/>
	<path class="st23" d="M599.5,41.9c0-5.7,0-11.4,0-17c0-0.2,0-0.4,0-0.6c-0.1-0.6,0.2-1,0.8-0.9c0.3,0,0.6,0,0.9,0c2,0,4,0,6,0
		c0.6,0,0.8,0.2,0.8,0.8c0,0.7-0.4,1.6,0.3,1.9c0.5,0.2,1.1-0.6,1.6-0.9c3.9-2.4,8-3.1,12.5-1.9c2.5,0.7,4.6,2.1,6.3,4.1
		c0.2,0.2,0.3,0.4,0.5,0.6c0.3,0.4,0.6,0.5,1,0c2.5-2.9,5.7-4.5,9.4-5.1c5.6-1,11.5,1.1,14.6,6.5c0.9,1.6,1.4,3.3,1.7,5.1
		c0.2,1.3,0.3,2.6,0.3,3.9c0,6.9,0,13.7,0,20.6c0,0.3,0,0.6,0,0.9c0,0.4-0.2,0.6-0.6,0.7c-2.4,0.1-4.8,0.1-7.2,0
		c-0.6,0-0.7-0.3-0.7-0.9c0-6.8,0.1-13.5,0-20.3c0-1-0.1-2-0.3-3c-0.4-2.8-2.9-6.1-6.8-6.3c-3.3-0.2-6.1,0.8-8.2,3.5
		c-0.4,0.5-0.6,1.1-0.6,1.8c0.6,8,0.1,16,0.3,24c0,1.1,0,1.2-1.1,1.2c-2.1,0-4.3,0-6.4,0c-0.9,0-0.9-0.1-0.9-1
		c-0.2-6.8-0.1-13.6-0.1-20.5c0-2-0.2-3.9-1.3-5.6c-0.8-1.4-2-2.4-3.5-2.9c-3.4-1.2-7.6-0.8-10.5,2.9c-0.4,0.5-0.4,1-0.4,1.5
		c0,3.4,0,6.8,0,10.2c0,4.7,0,9.5,0,14.2c0,1.1-0.1,1.1-1.1,1.1c-2.1,0-4.2,0.1-6.3,0c-1.1,0-1.1-0.1-1.1-1.2
		C599.5,53.5,599.5,47.7,599.5,41.9C599.5,41.9,599.5,41.9,599.5,41.9z"/>
	<path class="st23" d="M406,34.6c0,8.4,0,16.7,0,25.1c0,0.6-0.1,0.8-0.7,0.8c-2.3,0-4.6,0-6.9,0.1c-0.6,0-0.8-0.3-0.7-0.8
		c0-0.6,0-1.2,0-1.8c0-0.5-0.2-0.5-0.6-0.3c-0.1,0.1-0.3,0.2-0.4,0.2c-2.7,2-5.7,3-9,3.2c-4.2,0.2-8.1-0.7-11.6-3.2
		c-0.2-0.2-0.5-0.4-0.7-0.5c-4-2.8-6.3-6.7-7.3-11.4c-1.1-5.2-0.2-10.1,2.7-14.6c3.2-4.9,7.8-7.6,13.5-8.4c4.2-0.6,8,0.4,11.7,2.3
		c1.4,0.7,1.4,0.7,1.4-0.8c0-3.9,0-7.9,0-11.8c0-0.3,0-0.6,0-0.9c0-1.7,0-1.7,1.7-2c1.8-0.3,3.5-0.7,5.3-1c0.3-0.1,0.6-0.1,0.9-0.1
		c0.5-0.1,0.7,0.1,0.7,0.7c0,2.5,0,5.1,0,7.6C406.1,22.8,406.1,28.7,406,34.6C406.1,34.6,406.1,34.6,406,34.6z M397.5,42
		C397.5,42,397.5,42,397.5,42c0-2.3,0-4.7,0-7c0-0.7-0.2-1.2-0.8-1.6c-2-1.6-4.1-2.8-6.7-3c-2.6-0.3-5.1-0.3-7.5,1
		c-5.6,2.9-7.4,7.8-6.2,13.8c1.3,6,7.3,10.1,14.4,8.6c2.1-0.5,4.1-1.3,5.7-2.8c0.7-0.6,1-1.2,1-2.2C397.5,46.4,397.5,44.2,397.5,42z
		"/>
	<path class="st23" d="M635.7,115.2c0,8.2,0,16.3,0,24.5c0,1.5,0,1.5-1.5,1.5c-1.9,0-3.9,0-5.8,0c-1,0-0.9,0-1-1
		c0-0.7,0.3-1.7-0.2-1.9c-0.5-0.3-1.1,0.6-1.7,1c-3.3,2.1-7,2.7-10.9,2.5c-6.4-0.2-13.7-5.9-15.8-11.9c-2-5.6-2-11.2,0.9-16.5
		c3-5.4,7.6-8.7,13.8-9.7c4.3-0.7,8.3,0.3,12.2,2.1c1.7,0.8,1.7,0.8,1.7-1.1c0-4.3,0-8.7,0-13c0-1.1,0-1,1.1-1.2c2-0.4,4-0.8,6-1.1
		c1.3-0.2,1.3-0.2,1.3,1c0,2.6,0,5.3,0,7.9C635.7,104,635.7,109.6,635.7,115.2z M627.3,122.7C627.3,122.7,627.3,122.7,627.3,122.7
		c0-2.2-0.1-4.4,0-6.6c0-1.1-0.4-1.8-1.2-2.4c-2.7-2.1-5.7-3-9.1-2.9c-5.1,0.1-9.3,3.2-10.8,8c-0.5,1.7-0.7,3.4-0.5,5.2
		c0.4,3.7,2,6.7,5.2,8.8c2.3,1.5,4.8,2,7.4,1.8c3-0.1,5.6-1.3,7.9-3.1c0.7-0.6,1-1.3,1-2.2C627.3,127.1,627.3,124.9,627.3,122.7z"/>
	<path class="st23" d="M417.4,107c0.3-0.2,0.6-0.3,0.9-0.5c5.4-3.6,11.2-3.9,17.1-1.5c5.2,2.1,8.8,5.9,10.5,11.2
		c2.3,7,1.3,13.6-3.7,19.3c-3.3,3.7-7.4,6-12.5,6.3c-1.7,0.1-3.4,0.1-5.1-0.1c-2-0.3-3.8-1.2-5.6-2.1c-0.4-0.2-0.8-0.5-1.3-0.8
		c-0.6-0.4-0.8-0.3-0.8,0.4c0,0.1,0,0.2,0,0.3c0,1.6,0.4,1.7-1.6,1.8c-1.9,0-3.8,0-5.7,0c-0.6,0-1-0.1-0.9-0.8c0-0.3,0-0.7,0-1
		c0-15.6,0-31.3,0-46.9c0-0.3,0-0.7,0-1c0-0.6,0.2-0.8,0.8-0.9c2.1-0.3,4.2-0.7,6.3-1.1c0.9-0.2,1.3-0.5,1.2,1.1c0,1.5,0,3,0,4.5
		c0,3.6,0,7.3,0,10.9C417.2,106.2,417.2,106.7,417.4,107C417.4,107,417.4,107,417.4,107z M417.2,122.8
		C417.2,122.8,417.2,122.8,417.2,122.8c0,2.3,0,4.6,0,6.9c0,0.5,0,1.1,0.5,1.5c3.4,2.9,7.3,4.2,11.7,3.3c7-1.5,10.4-7.8,9-14.5
		c-0.9-4.4-5.2-8.8-10.6-9c-3.7-0.1-6.9,0.7-9.7,3.2c-0.7,0.6-0.9,1.2-0.9,2.1C417.2,118.3,417.2,120.5,417.2,122.8z"/>
	<path class="st23" d="M287.3,35.3c0-7.9,0-15.7,0-23.6c0-0.1,0-0.3,0-0.4c0-1.3,0-1.3,1.5-1.3c11.7,0,23.4,0,35.1,0
		c0.2,0,0.5,0,0.7,0c0.6,0,0.8,0.2,0.8,0.8c0,2.1,0,4.3,0,6.4c0,0.5-0.2,0.6-0.6,0.6c-1.1,0-2.3,0.1-3.4,0.1c-7.9,0-15.8,0-23.7,0
		c-0.2,0-0.4,0-0.6,0c-0.9,0-0.9,0-0.9,0.9c0,0.1,0,0.3,0,0.4c0,3.7,0,7.5,0,11.2c0,1.2,0,1.2,1.2,1.2c5.5,0,11,0,16.5,0
		c1.6,0,1.7-0.3,1.7,1.7c0,1.4,0,2.8,0,4.2c-0.1,1.9,0.2,1.7-1.7,1.7c-4.8,0-9.6,0-14.4,0c-0.8,0-1.7,0-2.5,0
		c-0.6,0-0.9,0.1-0.8,0.7c0,0.3,0,0.7,0,1c0,5.7,0,11.4,0,17c0,0.4,0,0.9,0,1.3c0,1.2,0,1.2-1.2,1.2c-2.2,0-4.4,0-6.6,0
		c-1.1,0-1.1,0-1.1-1.2C287.3,51.4,287.3,43.4,287.3,35.3C287.3,35.3,287.3,35.3,287.3,35.3z"/>
	<path class="st23" d="M302,130.7c0.6-1.5,1.3-2.9,1.9-4.4c1.1-2.7,2.2-5.3,3.3-8c1.9-4.5,3.8-9,5.6-13.5c0.2-0.6,0.5-0.9,1.2-0.9
		c2.5,0,5,0,7.5,0c0.8,0,0.8,0,0.5,0.9c-1.4,3.2-2.7,6.3-4.1,9.5c-4.6,10.6-9.1,21.2-13.7,31.8c-0.9,2-2,3.9-3.4,5.6
		c-2.8,3.5-6.5,5-10.9,5.1c-1.3,0-2.5-0.1-3.7-0.2c-0.5,0-0.8-0.3-0.8-0.8c0-2,0-4,0-6c0-0.7,0.4-0.7,0.9-0.6c1.2,0.2,2.5,0.3,3.7,0
		c2.4-0.4,4.3-1.6,5.4-3.9c0.5-0.9,0.9-1.9,1.3-2.8c0.4-0.7,0.4-1.3,0.1-2.1c-2-4.8-3.9-9.7-5.8-14.6c-1.8-4.6-3.6-9.2-5.4-13.8
		c-0.9-2.4-1.9-4.8-2.8-7.2c-0.3-0.8-0.3-0.9,0.5-0.9c2.5,0,5,0,7.5,0c0.8,0,1.2,0.4,1.4,1c0.5,1.4,1,2.8,1.5,4.2
		c1.3,3.7,2.8,7.4,4.1,11c1.3,3.4,2.5,6.9,3.8,10.4C301.7,130.9,301.8,130.9,302,130.7z"/>
	<path class="st23" d="M462.8,128.5c2.5,4.8,7.4,6.9,12.6,6.2c2.2-0.3,4.3-1.1,6.1-2.4c0.5-0.4,0.9-0.5,1.4,0c1.4,1.4,2.8,2.7,4.2,4
		c0.3,0.3,0.3,0.6,0,0.8c-0.6,0.4-1.2,0.9-1.8,1.3c-4.5,2.9-9.4,3.7-14.6,3.3c-3.9-0.3-7.4-1.8-10.3-4.3c-5.7-4.7-8-10.8-6.9-18.1
		c0.8-4.9,3.1-8.9,7-12c9.8-7.5,22.6-4.1,27.5,5.7c1.8,3.5,2.5,7.3,2.5,11.3c0,1.1,0,1.1-1.2,1.1c-8.1,0-16.2,0-24.3,0
		c-0.8,0-1.6,0-2.4,0c-0.5,0-0.7,0.3-0.5,0.8c0.2,0.5,0.4,1,0.6,1.5C462.5,128.2,462.6,128.4,462.8,128.5z M471.7,119.3
		C471.7,119.3,471.7,119.3,471.7,119.3c3.1,0,6.2,0,9.3,0c0.9,0,0.9,0,0.7-1c-0.8-3.7-5-8.1-10-7.9c-2.6,0.1-4.8,0.8-6.6,2.6
		c-1.5,1.4-2.5,3.2-3.1,5.2c-0.3,1.1,0,1,0.8,1C465.7,119.3,468.7,119.3,471.7,119.3z"/>
	<path class="st23" d="M438.8,60.7c-4.7,0.9-9.4,0.9-13.8-1.2c-7-3.4-10.9-9-11.1-16.9c0-1.4,0-2.9,0.3-4.3
		c1.6-7.8,6.4-12.8,14-14.9c8.3-2.2,16.5,1.7,20.5,9.3c1.9,3.7,2.3,7.6,2.2,11.6c0,0.4-0.2,0.6-0.5,0.6c-0.4,0-0.8,0-1.2,0
		c-8.2,0-16.4,0-24.6,0c-2.2,0-2.7-0.4-1.5,2.3c2.3,5,7.5,7.7,13.1,6.8c2.2-0.4,4.3-1.2,6.1-2.6c0.4-0.3,0.7-0.3,1,0.1
		c1.5,1.4,2.9,2.8,4.4,4.3c0.4,0.4,0.1,0.7-0.2,0.9c-2.6,1.9-5.4,3.4-8.6,4L438.8,60.7L438.8,60.7z M432.3,38.6
		C432.3,38.6,432.3,38.6,432.3,38.6c1.2,0,2.4,0,3.6,0c1.9,0,3.9,0,5.8,0c0.7,0,0.8-0.1,0.6-0.8c-0.2-0.8-0.5-1.6-0.9-2.4
		c-2.5-4.6-6.7-6.6-11.8-5.3c-4,1-6,4-7.2,7.7c-0.2,0.7,0.2,0.7,0.7,0.7C426.2,38.6,429.2,38.6,432.3,38.6z"/>
	<path class="st23" d="M338.7,60.7c-6.2-1.7-10.7-5.4-13.3-11.3c-1.3-2.9-1.5-6-1.3-9.2c0.4-8.4,7.6-16.6,17.4-17.3
		c8.4-0.6,15.8,4.4,18.5,12.6c0.9,2.7,1,5.5,1.1,8.3c0.1,1.1,0,1.1-1.2,1.1c-3.4,0-6.9,0-10.3,0c-5.1,0-10.3,0-15.4,0
		c-0.2,0-0.5,0-0.7,0c-0.7,0-0.8,0.1-0.6,0.8c0.8,2.8,2.3,4.9,4.8,6.5c4.9,3,9.7,2.5,14.4-0.4c0.2-0.1,0.4-0.3,0.6-0.4
		c0.4-0.3,0.6-0.2,1,0.1c1.4,1.4,2.8,2.7,4.2,4.1c0.6,0.6,0.6,0.6-0.1,1.1c-2.3,1.7-4.8,3-7.6,3.8c-3.7,0.9-7.5,1-11.3,0.2
		C338.8,60.6,338.8,60.5,338.7,60.7z M342.5,38.7c3,0,6.1-0.2,9.1,0c1.1,0.1,1.1,0,0.9-1c0-0.2-0.1-0.5-0.2-0.7
		c-1.7-4.6-5.6-7.2-10.4-7.1c-5.3,0.1-8.4,4.5-9.2,8.2c-0.1,0.6,0.1,0.7,0.6,0.6C336.4,38.7,339.4,38.7,342.5,38.7z"/>
	<path class="st23" d="M518.3,47.6c0,3.9,0,7.9,0,11.8c0,1.1,0,1.2-1.2,1.2c-2.1,0-4.3,0-6.4,0c-0.5,0-0.8-0.1-0.7-0.7
		c0-0.1,0-0.3,0-0.4c-0.1-0.5,0.3-1.1-0.2-1.4c-0.4-0.2-0.8,0.3-1.2,0.5c-3.6,2.2-7.5,2.8-11.6,2.5c-2.1-0.2-4.1-0.8-6-1.7
		c-5.4-2.8-7.3-9.8-4.3-15.1c0.9-1.6,2.3-2.7,3.9-3.6c3.6-1.9,7.4-2.3,11.3-2c2.4,0.1,4.7,0.6,7,1.4c0.9,0.3,1,0.3,1-0.7
		c0-0.8,0-1.7,0-2.5c-0.2-4.1-2.6-6.6-6.8-6.9c-3.8-0.3-7.3,0.4-10.8,1.9c-0.8,0.3-1.6,1-2.3,0.7c-0.7-0.3-0.8-1.3-1.2-2
		c-0.5-1.1-1-2.2-1.6-3.2c-0.2-0.5-0.2-0.7,0.3-0.9c1.1-0.4,2.2-1,3.3-1.4c4.1-1.4,8.2-2.5,12.6-2.3c3.1,0.1,6.1,0.8,8.9,2.2
		c3.3,1.8,5,4.7,5.6,8.3c0.2,1.4,0.3,2.9,0.3,4.3C518.3,40.9,518.3,44.2,518.3,47.6C518.3,47.6,518.3,47.6,518.3,47.6z M510,49.1
		C510,49.1,510,49.1,510,49.1c0-0.5-0.1-1.1,0-1.6c0.1-1.1-0.4-1.5-1.3-1.8c-2.6-1.1-5.4-1.4-8.2-1.4c-1.6,0-3.1,0.4-4.6,1.2
		c-1.9,0.9-2.7,2.4-2.6,4.4c0.1,2.2,1.3,3.5,3.1,4.3c2.3,1,4.7,1,7.1,0.7c1.6-0.2,3.1-0.6,4.5-1.5c2-1.2,2-1.2,2-3.5
		C510,49.6,510,49.4,510,49.1z"/>
	<path class="st23" d="M664.7,36.7c2.8-9.4,12.3-15,21.4-13.8c5.4,0.7,9.9,3,13.3,7.3c2.5,3.2,3.8,6.8,4,10.9
		c0.1,3.7-0.6,7.1-2.4,10.3c-3.1,5.4-7.7,8.6-13.9,9.6c-4.1,0.7-8.1,0.2-11.8-1.5c-5.1-2.4-8.6-6.3-10.3-11.6
		c-1.2-3.6-1.1-7.3-0.2-11L664.7,36.7L664.7,36.7z M694.9,41.8c0.2-4-1.7-7.2-4.9-9.6c-3.4-2.7-8.6-2.8-12.3-0.5
		c-6.9,4.2-7.9,16,0.5,20.9c4.2,2.4,9.9,1.7,13.4-1.9C694,48.2,695,45.3,694.9,41.8z"/>
	<path class="st23" d="M589.7,128c0,4.1,0,8.2,0,12.2c0,1,0,1-1,1.1c-2.1,0-4.3,0-6.4,0c-0.6,0-0.9-0.2-0.9-0.9
		c0-0.6,0.3-1.3-0.2-1.6c-0.5-0.3-1,0.4-1.4,0.7c-3.6,2.2-7.5,2.7-11.7,2.4c-2.7-0.2-5.1-1.2-7.3-2.8c-5.3-3.9-5.2-11.9-1.6-15.5
		c1-1,2-1.8,3.3-2.3c2.5-1.2,5.2-1.8,8-1.8c3.5-0.1,6.9,0.3,10.1,1.5c0.7,0.2,0.8,0.1,0.8-0.5c0.1-1.6,0-3.2-0.3-4.8
		c-0.7-2.9-3-4.7-6.4-4.9c-3.3-0.2-6.6,0.1-9.7,1.4c-1,0.4-2,0.7-2.9,1.1c-0.5,0.2-0.8,0.1-1.1-0.4c-0.8-1.6-1.5-3.1-2.3-4.7
		c-0.3-0.5-0.2-0.8,0.4-1c1.6-0.7,3.2-1.4,4.9-1.9c3.5-1.1,7-1.8,10.7-1.7c2.4,0.1,4.8,0.4,7,1.3c4.9,1.8,7.4,5.5,7.8,10.6
		c0.2,1.8,0.1,3.7,0.1,5.5C589.8,123.2,589.8,125.6,589.7,128C589.8,128,589.8,128,589.7,128z M579.7,126.1
		c-0.2-0.2-0.5-0.3-0.8-0.3c-2.4-0.6-4.8-1-7.2-0.9c-1.6,0.1-3.1,0.5-4.6,1.3c-3,1.6-3,5.4-1,7.2c1,1,2.1,1.6,3.5,1.9
		c1.7,0.4,3.4,0.3,5.1,0.2c2.2-0.2,4.2-1,6.1-2.3c0.6-0.4,0.9-0.9,0.8-1.6c0-1-0.1-2,0-3c0.2-1.4-0.4-2.2-1.7-2.5
		C579.8,126.2,579.8,126.1,579.7,126.1z"/>
	<path class="st23" d="M345.3,115.8c0-7.8,0-15.5,0-23.3c0-0.3,0-0.7,0-1c-0.1-0.7,0.2-0.9,0.9-0.9c2.4,0,4.8,0,7.2,0
		c0.9,0,0.9,0,0.9,0.9c0,1,0,2.1,0,3.1c0,12.3,0,24.6,0,36.9c0,1.9-0.2,1.7,1.8,1.7c8.2,0,16.5,0,24.7,0c2.3,0,1.9-0.2,1.9,1.9
		c0,1.7,0,3.4,0,5.1c0,0.6-0.2,0.9-0.9,0.9c-0.4,0-0.8,0-1.2,0c-11.2,0-22.4,0-33.6,0c-1.8,0-1.8,0-1.8-1.8
		C345.3,131.6,345.3,123.7,345.3,115.8z"/>
	<path class="st23" d="M591.6,27.5c-1.2,1.7-2.4,3.3-3.6,5c-0.2,0.3-0.5,0.4-0.9,0.2c-0.7-0.4-1.4-0.7-2.1-1.1
		c-3.2-1.8-6.6-2.3-10.2-2.3c-1.4,0-2.7,0.5-4,1.2c-2.3,1.4-2.3,5,0.3,6.2c1.4,0.6,2.8,1,4.3,1.2c2.5,0.4,5,0.8,7.5,1.2
		c1.8,0.3,3.5,0.8,5.1,1.7c3.2,1.8,4.9,4.5,5,8.2c0.1,4.9-2.7,8-6.7,10.1c-3.2,1.8-6.8,2.3-10.4,2.1c-3.2-0.2-6.5-0.6-9.5-1.8
		c-1.9-0.8-3.6-1.9-5.3-3.1c-0.4-0.3-0.4-0.6-0.1-1c1.1-1.4,2.3-2.9,3.4-4.4c0.4-0.5,0.6-0.5,1.1-0.2c1.3,0.8,2.6,1.6,3.9,2.3
		c2.1,1.1,4.4,1.7,6.8,1.7c1.5,0,3.1,0.1,4.6-0.3c1.3-0.4,2.5-1,3.4-2.1c1.5-1.8,1-4.3-1-5.5c-0.7-0.4-1.6-0.7-2.4-0.8
		c-1.7-0.3-3.3-0.6-5-0.7c-2.4-0.2-4.8-0.6-7.1-1.5c-3.2-1.3-5.7-3.2-6.5-6.7c-1.1-4.5,0.1-8.3,3.6-11.1c2.7-2.1,5.8-3,9.2-3.3
		c6.1-0.5,11.6,1.2,16.7,4.5C591.6,27.3,591.6,27.4,591.6,27.5C591.7,27.5,591.6,27.5,591.6,27.5z"/>
	<path class="st23" d="M541,121.2c0,2.7,0,5.5,0,8.2c0,0.8,0.1,1.6,0.3,2.4c0.4,1.7,1.6,2.5,3.2,2.7c2,0.3,4.1,0.1,6.1-0.4
		c1-0.2,1-0.2,1,0.9c0,1.6,0,3.3,0,4.9c0,0.7-0.3,1-1,1.2c-3.3,0.8-6.7,1.1-10.1,0.5c-3.5-0.6-7.2-3.2-7.8-8.2
		c-0.1-0.7-0.1-1.5-0.1-2.2c0-6.3,0-12.5,0-18.8c0-1.1,0-1.2-1.1-1.2c-1.9,0-3.8,0-5.7-0.1c-0.9,0-0.9-0.1-0.9-0.9
		c0-1.7,0-3.5,0-5.2c0-0.9,0-0.9,1-1c1.9,0,3.8,0,5.7,0c0.9,0,0.9,0,0.9-0.9c0.1-2.4,0.1-4.9,0.1-7.3c0-1.1,0-1.1,1.1-1.4
		c2.2-0.5,4.4-1.1,6.5-1.6c0.7-0.2,0.8,0.1,0.8,0.6c0,2.9,0,5.8,0,8.7c0,0.2,0,0.5,0,0.7c0,1.1,0,1.2,1.1,1.2c2.6,0,5.2,0,7.8,0
		c0.4,0,0.8,0,1.2,0c0.5,0,0.7,0.3,0.7,0.7c0,1.8,0,3.6,0,5.4c0,0.9,0,1-0.9,1c-1.5,0-3,0-4.5,0c-1.5,0-3,0-4.5,0
		c-0.9,0-0.9,0-0.9,0.9C541,115.2,541,118.2,541,121.2C541,121.2,541,121.2,541,121.2z"/>
	<path class="st23" d="M536.2,34.5c0,8,0,16,0,24c0,0.1,0,0.3,0,0.4c0,1.5,0,1.5-1.5,1.5c-2,0-4,0-6,0c-1.2,0-1.2,0-1.2-1.3
		c0-7.1,0-14.1,0-21.2c0-8.6,0-17.2,0-25.8c0-0.5,0-1,0-1.5c0-0.6,0.2-0.8,0.8-0.9c2.1-0.3,4.1-0.7,6.2-1.1c2-0.4,1.6-0.1,1.6,1.4
		C536.2,18.3,536.2,26.4,536.2,34.5C536.2,34.5,536.2,34.5,536.2,34.5z"/>
	<path class="st23" d="M498,122.7c0-5.7,0-11.5,0-17.2c0-0.2,0-0.4,0-0.6c-0.1-0.7,0.3-0.9,0.9-0.8c1.4,0,2.8,0,4.2,0
		c0.8,0,1.7,0,2.5,0c1,0,1,0.1,1,1c0,0.7-0.1,1.5-0.1,2.2c0,0.2-0.1,0.4,0.2,0.5c0.2,0.1,0.4-0.1,0.5-0.2c1-1.2,2.3-2.2,3.7-2.9
		c2.6-1.5,5.4-1.7,8.3-1.2c1.3,0.3,1.4,0.5,1.4,1.8c0,1.7,0,3.4,0,5.1c0,0.9,0,1-0.9,0.7c-1.6-0.4-3.1-0.6-4.7-0.5
		c-3.8,0.2-6.3,2.3-8,5.5c-0.4,0.7-0.4,1.4-0.4,2.2c0,5.7,0.1,11.5,0.1,17.2c0,1.7-0.1,3.4-0.1,5.1c0,0.6-0.3,0.8-0.8,0.8
		c-2.3,0-4.7,0-7,0c-0.5,0-0.7-0.2-0.7-0.7c0-0.8,0-1.6,0-2.4C498.1,133,498.1,127.8,498,122.7C498,122.7,498,122.7,498,122.7z"/>
	<path class="st23" d="M458.8,41.9c0-5.7,0-11.4,0-17c0-0.3,0-0.6,0-0.9c0-0.4,0.2-0.6,0.6-0.6c2.4,0,4.8,0,7.2,0
		c0.6,0,0.8,0.3,0.7,0.9c0,0.7,0,1.5,0,2.2c0,0.2-0.2,0.5,0.2,0.6c0.3,0.1,0.4-0.2,0.6-0.4c0.6-0.6,1.2-1.2,1.9-1.7
		c3-2.4,6.5-2.9,10.2-2.1c1.1,0.2,1.1,0.3,1.2,1.3c0,1.8,0,3.7,0,5.5c0,0.8-0.1,0.9-0.9,0.6c-1.5-0.4-3-0.6-4.6-0.5
		c-3.8,0.2-6.3,2.3-8.2,5.4c-0.4,0.6-0.3,1.3-0.3,2c0,7.2,0,14.3,0,21.5c0,1.7,0.4,1.7-1.7,1.7c-1.8,0-3.6,0-5.4,0
		c-1.6,0-1.4,0-1.4-1.5c0-5.1,0-10.2,0-15.2C458.8,43.2,458.8,42.6,458.8,41.9C458.8,41.9,458.8,41.9,458.8,41.9z"/>
	<path class="st23" d="M399,122.8c0,5.7,0,11.5,0,17.2c0,0.1,0,0.3,0,0.4c0,0.9,0,0.9-1,0.9c-0.4,0-0.8,0-1.2,0c-1.8,0-3.6,0-5.4,0
		c-0.9,0-1-0.1-1-1c0-1.1,0-2.2,0-3.3c0-10.4,0-20.8,0-31.2c0-1.7,0-1.7,1.7-1.7c1.9,0,3.9,0,5.8,0c1,0,1.1,0,1.1,1.1
		C399,111,399,116.9,399,122.8C399,122.8,399,122.8,399,122.8z"/>
	<path class="st23" d="M553.9,42.1c0,5.5,0,11,0,16.4c0,0.3,0,0.6,0,0.9c0,1,0,1-1.1,1.1c-0.5,0-1,0-1.5,0c-1.6,0-3.3,0-4.9,0
		c-0.7,0-0.9-0.2-0.9-0.9c0-0.3,0-0.6,0-0.9c0-11.3,0-22.6,0-33.9c0-1.7-0.1-1.5,1.5-1.5c1.8,0,3.7,0,5.5,0c1.4,0,1.3,0,1.3,1.4
		C553.9,30.6,553.9,36.4,553.9,42.1C553.9,42.1,553.9,42.1,553.9,42.1z"/>
	<path class="st23" d="M549.7,8.5c2.9,0,4.9,1.8,4.9,4.6c0,2.8-2.1,5.1-4.8,5.1c-2.7,0-5.2-2.4-5.2-5.1
		C544.8,10.5,547,8.5,549.7,8.5z"/>
	<path class="st23" d="M399.8,93.9c0,2.7-2.4,5-5.2,5c-2.6,0-4.8-2.3-4.9-4.9c0-2.7,2.2-5,4.9-5C397.4,88.9,399.8,91.2,399.8,93.9z"
		/>
	<path class="st22" d="M462.8,128.5c-0.2-0.2-0.3-0.3-0.3-0.6C462.7,128.1,462.8,128.3,462.8,128.5z"/>
	<path class="st22" d="M302,130.7c-0.1,0.1-0.3,0.1-0.3-0.1c0-0.1,0-0.2,0.1-0.1C301.8,130.6,301.9,130.7,302,130.7z"/>
	<polygon class="st22" points="438.8,60.7 438.8,60.6 438.9,60.7 438.9,60.8 	"/>
	<path class="st22" d="M338.7,60.7c0.1-0.1,0.1-0.1,0.1,0L338.7,60.7L338.7,60.7z"/>
	<path class="st22" d="M664.7,36.7L664.7,36.7l0,0.1C664.5,36.9,664.5,36.8,664.7,36.7C664.6,36.7,664.6,36.7,664.7,36.7z"/>
	<polygon class="st22" points="28.6,100.9 28.5,100.9 28.5,100.9 	"/>
	<path class="st22" d="M29.6,100.6c-0.1,0-0.2,0.1-0.2,0.1c0,0-0.1-0.1-0.1-0.1C29.3,100.6,29.4,100.5,29.6,100.6
		C29.5,100.5,29.5,100.6,29.6,100.6z"/>
	<path class="st22" d="M591.6,27.5L591.6,27.5L591.6,27.5z"/>
	<polygon class="st22" points="417.4,107 417.4,107 417.4,106.9 	"/>
	<path class="st22" d="M579.7,126.1c-0.3,0.1-0.6,0-0.8-0.3C579.2,125.8,579.5,125.9,579.7,126.1z"/>
</g>
</svg>
