<svg xmlns="http://www.w3.org/2000/svg" id="Capa_2" viewBox="0 0 334.04 52.44"><defs><style>.cls-1{fill:#bc1824;}</style></defs><g id="Contenido"><path class="cls-1" d="m62.06.98l-3.59-.92-6.29,24.63c1.33.34,2.49.64,3.59.92L62.06.98Z"></path><path class="cls-1" d="m53.67,27.72l2.37,23.36,3.68-.37-2.37-23.36c-1.13.11-2.31.23-3.68.37Z"></path><path d="m0,.77h9.21c7.68,0,10.96,5.23,10.96,13.33,0,6.98-2.72,11.79-7.05,12.84l7.54,23.59h-3.77l-7.33-22.68H3.7v22.68H0V.77Zm9.42,24.08c4.82,0,6.98-3.98,6.98-10.26,0-5.03-1.47-10.54-7.26-10.54H3.7v20.8h5.72Z"></path><path d="m24.88,40.76V.77h3.7v39.29c0,5.51,3.28,7.82,7.12,7.82,4.96,0,7.05-3.35,6.91-7.68V.77h3.49v39.5c.07,6.63-4.05,10.96-10.68,10.96-5.93,0-10.54-3.35-10.54-10.47Z"></path><path d="m67.85.77h10.47c6,0,10.54,3.07,10.54,9.7v29.45c0,7.12-4.54,10.61-10.75,10.61h-10.26V.77Zm10.05,46.48c5.44,0,7.19-3.98,7.19-7.19V10.89c0-3.77-2.16-6.91-7.12-6.91h-6.49v43.27h6.42Z"></path><path d="m94.74,40.2V10.96c0-7.12,4.75-10.96,11.17-10.96s10.89,3.28,10.89,10.19v29.66c0,7.54-4.68,11.31-11.17,11.31s-10.89-3.7-10.89-10.96Zm18.36,0V10.33c0-4.19-2.58-7.12-7.4-7.12s-7.19,3.42-7.19,7.4v29.66c0,4.05,2.37,7.54,7.33,7.54s7.26-3.63,7.26-7.61Z"></path><path d="m131.01,17.49h2.36c2.07,0,2.77,1.58,2.77,3.62,0,2.27-.94,3.78-2.92,3.78h-1.26v5.44h-.95v-12.84Zm2.16,6.57c1.4,0,2.03-1.06,2.03-2.95,0-1.51-.45-2.75-1.91-2.75h-1.33v5.71h1.21Z"></path><path d="m137.59,27.93v-4.54c0-1.62.92-2.58,2.32-2.58s2.09.99,2.09,2.39v2.63h-3.49v1.93c0,1.24.38,1.91,1.64,1.91.59,0,1.13-.22,1.51-.4l.27.68c-.5.32-1.21.52-1.91.52-1.53,0-2.43-.79-2.43-2.56Zm3.55-2.84v-1.93c0-.74-.29-1.55-1.31-1.55-.97,0-1.31.83-1.31,1.58v1.89h2.63Z"></path><path d="m144,21h.88v1.03h.02c.38-.85,1.03-1.1,1.66-1.1.13,0,.27,0,.38.04v.92c-.2-.02-.4-.04-.52-.04-.9,0-1.49.56-1.51,1.6v6.88h-.9v-9.33Z"></path><path d="m148.5,17.42h.9v1.76h-.9v-1.76Zm0,3.58h.9v9.33h-.9v-9.33Z"></path><path d="m151.49,28.02v-4.77c0-1.57,1.01-2.43,2.32-2.43s2.29.81,2.29,2.34v4.83c0,1.69-.97,2.5-2.32,2.5-1.46,0-2.29-.9-2.29-2.47Zm3.69.04v-4.9c0-.83-.4-1.57-1.4-1.57s-1.37.76-1.37,1.58v4.88c0,.83.38,1.64,1.4,1.64,1.1,0,1.37-.83,1.37-1.64Z"></path><path d="m157.9,28.62v-5.74c0-1.3.9-2.05,1.96-2.05.65,0,1.3.31,1.6,1.01h.02v-4.34h.92v12.84h-.74l-.05-1.13h-.05c-.41,1.01-1.28,1.28-1.85,1.28-1.24,0-1.8-.9-1.8-1.85Zm3.6-1.12v-3.87c0-1.03-.7-2.02-1.51-2.02-.72,0-1.17.4-1.17,1.4v5.31c0,.76.29,1.33,1.17,1.33s1.51-1.06,1.51-2.16Z"></path><path d="m164.77,17.42h.9v1.76h-.9v-1.76Zm0,3.58h.9v9.33h-.9v-9.33Z"></path><path d="m167.51,28.2h.9c.13.96.45,1.5,1.3,1.5.7,0,1.15-.41,1.15-1.28,0-.79-.65-1.57-1.13-2.18l-.88-1.08c-.65-.83-1.08-1.51-1.08-2.38,0-1.04.65-1.95,2.03-1.95,1.1,0,1.89.7,1.96,2.18l-.86.04c-.11-1.06-.45-1.46-1.15-1.46s-1.12.49-1.12,1.12c0,.5.22,1.03.81,1.73l1.08,1.3c.83,1.06,1.21,1.89,1.21,2.65,0,1.04-.65,2.09-2.03,2.09s-2.09-.9-2.18-2.27Z"></path><path d="m173.52,21h.83v1.06h.02c.38-.83,1.15-1.24,1.96-1.24s1.42.49,1.57,1.21h.02c.4-.81,1.15-1.21,1.96-1.21.94,0,1.62.63,1.62,1.6v7.9h-.9v-7.47c0-.85-.4-1.26-1.12-1.26-.86,0-1.49.94-1.53,1.85v6.88h-.9v-7.51c-.02-.81-.41-1.22-1.1-1.22-.9,0-1.53,1.06-1.53,2.03v6.7h-.9v-9.33Z"></path><path d="m183.47,28.02v-4.77c0-1.57,1.01-2.43,2.32-2.43s2.29.81,2.29,2.34v4.83c0,1.69-.97,2.5-2.32,2.5-1.46,0-2.29-.9-2.29-2.47Zm3.69.04v-4.9c0-.83-.4-1.57-1.4-1.57s-1.37.76-1.37,1.58v4.88c0,.83.38,1.64,1.4,1.64,1.1,0,1.37-.83,1.37-1.64Z"></path><path d="m192.4,28.62v-5.74c0-1.3.9-2.05,1.96-2.05.65,0,1.3.31,1.6,1.01h.02v-4.34h.92v12.84h-.74l-.05-1.13h-.05c-.41,1.01-1.28,1.28-1.85,1.28-1.24,0-1.8-.9-1.8-1.85Zm3.6-1.12v-3.87c0-1.03-.7-2.02-1.51-2.02-.72,0-1.17.4-1.17,1.4v5.31c0,.76.29,1.33,1.17,1.33s1.51-1.06,1.51-2.16Z"></path><path d="m198.99,27.93v-4.54c0-1.62.92-2.58,2.32-2.58s2.09.99,2.09,2.39v2.63h-3.49v1.93c0,1.24.38,1.91,1.64,1.91.59,0,1.13-.22,1.51-.4l.27.68c-.5.32-1.21.52-1.91.52-1.53,0-2.43-.79-2.43-2.56Zm3.55-2.84v-1.93c0-.74-.29-1.55-1.31-1.55-.97,0-1.31.83-1.31,1.58v1.89h2.63Z"></path><path d="m207.92,17.42h.9v1.76h-.9v-1.76Zm0,3.58h.9v9.33h-.9v-9.33Z"></path><path d="m211.19,21h.83v1.06h.02c.38-.81,1.15-1.24,1.96-1.24.95,0,1.62.63,1.62,1.6v7.9h-.9v-7.47c0-.85-.41-1.26-1.1-1.26-.9,0-1.53,1.06-1.53,2.03v6.7h-.9v-9.33Z"></path><path d="m217.1,21h.94l1.46,7.65h.04l1.48-7.65h.86l-1.93,9.36h-.94l-1.91-9.36Z"></path><path d="m223.07,27.93v-4.54c0-1.62.92-2.58,2.32-2.58s2.09.99,2.09,2.39v2.63h-3.49v1.93c0,1.24.38,1.91,1.64,1.91.59,0,1.13-.22,1.51-.4l.27.68c-.5.32-1.21.52-1.91.52-1.53,0-2.43-.79-2.43-2.56Zm3.55-2.84v-1.93c0-.74-.29-1.55-1.31-1.55-.97,0-1.31.83-1.31,1.58v1.89h2.63Z"></path><path d="m228.94,28.2h.9c.13.96.45,1.5,1.3,1.5.7,0,1.15-.41,1.15-1.28,0-.79-.65-1.57-1.13-2.18l-.88-1.08c-.65-.83-1.08-1.51-1.08-2.38,0-1.04.65-1.95,2.03-1.95,1.1,0,1.89.7,1.96,2.18l-.86.04c-.11-1.06-.45-1.46-1.15-1.46s-1.12.49-1.12,1.12c0,.5.22,1.03.81,1.73l1.08,1.3c.83,1.06,1.21,1.89,1.21,2.65,0,1.04-.65,2.09-2.03,2.09s-2.09-.9-2.18-2.27Z"></path><path d="m235.13,29.21v-7.4h-.99v-.79h.99v-2.12h.88v2.12h1.55v.79h-1.55v7.15c0,.5.2.68.58.68.27,0,.58-.07.79-.14v.74c-.34.13-.63.2-.97.2-.63,0-1.28-.27-1.28-1.22Z"></path><path d="m239.17,17.42h.9v1.76h-.9v-1.76Zm0,3.58h.9v9.33h-.9v-9.33Z"></path><path d="m242.15,32.97l.32-.76c.58.25,1.06.38,1.62.38,1.06,0,1.64-.58,1.64-1.76v-1.85h-.04c-.32.81-1.1,1.21-1.71,1.21-1.26,0-1.84-.96-1.84-2.05v-5.2c0-1.42.94-2.11,1.96-2.11.59,0,1.42.31,1.69,1.1h.02v-.94h.81v9.78c0,1.75-1.03,2.63-2.56,2.63-.74,0-1.33-.13-1.93-.41Zm3.58-5.58v-3.85c0-1.08-.77-1.98-1.53-1.98s-1.15.52-1.15,1.44v5.01c0,.65.25,1.37,1.19,1.37.79,0,1.49-.92,1.49-1.98Z"></path><path d="m248.54,27.7c0-1.78,1.04-2.93,2.56-2.99h.9v-2.05c0-.68-.41-1.1-1.19-1.1-.7,0-1.21.36-1.21,1.06v1.06h-.86v-1.04c0-1.06.81-1.82,2.18-1.82,1.22,0,1.98.74,1.98,1.78v5.4c0,.61.04,1.82.05,2.32h-.81c0-.2-.04-.72-.04-1.04h-.05c-.31.86-1.08,1.21-1.66,1.21-1.03,0-1.85-.88-1.85-2.79Zm3.46.2v-2.5h-.86c-.79,0-1.67.49-1.67,2.21,0,1.49.49,2.12,1.13,2.12.79,0,1.4-.9,1.4-1.84Z"></path><path d="m254.88,28.04v-4.79c0-1.6.97-2.43,2.29-2.43,1.44,0,2.11.92,2.11,1.94v1.01h-.83v-.94c0-.56-.29-1.24-1.28-1.24s-1.37.76-1.37,1.55v4.97c0,.83.31,1.58,1.35,1.58,1.15,0,1.3-.85,1.3-1.33v-.86h.83v.96c0,1.19-.74,2.03-2.16,2.03s-2.23-.88-2.23-2.45Z"></path><path d="m261.22,17.42h.9v1.76h-.9v-1.76Zm0,3.58h.9v9.33h-.9v-9.33Z"></path><path d="m264.2,28.02v-4.77c0-1.57,1.01-2.43,2.32-2.43s2.29.81,2.29,2.34v4.83c0,1.69-.97,2.5-2.32,2.5-1.46,0-2.29-.9-2.29-2.47Zm3.69.04v-4.9c0-.83-.4-1.57-1.4-1.57s-1.37.76-1.37,1.58v4.88c0,.83.38,1.64,1.4,1.64,1.1,0,1.37-.83,1.37-1.64Zm-.54-10.64h1.08l-1.57,2.5h-.76l1.24-2.5Z"></path><path d="m270.9,21h.83v1.06h.02c.38-.81,1.15-1.24,1.96-1.24.95,0,1.62.63,1.62,1.6v7.9h-.9v-7.47c0-.85-.41-1.26-1.1-1.26-.9,0-1.53,1.06-1.53,2.03v6.7h-.9v-9.33Z"></path><path d="m130.72,47.04v-4.79c0-1.6.97-2.43,2.29-2.43,1.44,0,2.11.92,2.11,1.94v1.01h-.83v-.94c0-.56-.29-1.24-1.28-1.24s-1.37.76-1.37,1.55v4.97c0,.83.31,1.58,1.35,1.58,1.15,0,1.3-.85,1.3-1.33v-.86h.83v.96c0,1.19-.74,2.03-2.16,2.03s-2.23-.88-2.23-2.45Z"></path><path d="m136.77,47.02v-4.77c0-1.57,1.01-2.43,2.32-2.43s2.29.81,2.29,2.34v4.83c0,1.69-.97,2.5-2.32,2.5-1.46,0-2.29-.9-2.29-2.47Zm3.69.04v-4.9c0-.83-.4-1.57-1.4-1.57s-1.37.76-1.37,1.58v4.88c0,.83.38,1.64,1.4,1.64,1.1,0,1.37-.83,1.37-1.64Z"></path><path d="m143.46,40h.83v1.06h.02c.38-.81,1.15-1.24,1.96-1.24.95,0,1.62.63,1.62,1.6v7.9h-.9v-7.47c0-.85-.41-1.26-1.1-1.26-.9,0-1.53,1.06-1.53,2.03v6.7h-.9v-9.33Z"></path><path d="m150.54,48.21v-7.4h-.99v-.79h.99v-2.12h.88v2.12h1.55v.79h-1.55v7.15c0,.5.2.68.58.68.27,0,.58-.07.79-.14v.74c-.34.13-.63.2-.97.2-.63,0-1.28-.27-1.28-1.22Z"></path><path d="m154.57,40h.88v1.03h.02c.38-.85,1.03-1.1,1.66-1.1.13,0,.27,0,.38.04v.92c-.2-.02-.4-.04-.52-.04-.9,0-1.49.56-1.51,1.6v6.88h-.9v-9.33Z"></path><path d="m158.55,46.7c0-1.78,1.04-2.93,2.56-2.99h.9v-2.05c0-.68-.41-1.1-1.19-1.1-.7,0-1.21.36-1.21,1.06v1.06h-.86v-1.04c0-1.06.81-1.82,2.18-1.82,1.22,0,1.98.74,1.98,1.78v5.4c0,.61.04,1.82.05,2.32h-.81c0-.2-.04-.72-.04-1.04h-.05c-.31.86-1.08,1.21-1.66,1.21-1.03,0-1.85-.88-1.85-2.79Zm3.46.2v-2.5h-.86c-.79,0-1.67.49-1.67,2.21,0,1.49.49,2.12,1.13,2.12.79,0,1.4-.9,1.4-1.84Z"></path><path d="m167.65,48.14v-11.65h.9v11.47c0,.36.2.63.65.63.16,0,.32-.02.49-.05v.76c-.27.09-.52.13-.77.13-.86,0-1.26-.49-1.26-1.28Z"></path><path d="m170.8,46.7c0-1.78,1.04-2.93,2.56-2.99h.9v-2.05c0-.68-.41-1.1-1.19-1.1-.7,0-1.21.36-1.21,1.06v1.06h-.86v-1.04c0-1.06.81-1.82,2.18-1.82,1.22,0,1.98.74,1.98,1.78v5.4c0,.61.04,1.82.05,2.32h-.81c0-.2-.04-.72-.04-1.04h-.05c-.31.86-1.08,1.21-1.66,1.21-1.03,0-1.85-.88-1.85-2.79Zm3.46.2v-2.5h-.86c-.79,0-1.67.49-1.67,2.21,0,1.49.49,2.12,1.13,2.12.79,0,1.4-.9,1.4-1.84Z"></path><path d="m179.66,47.04v-4.79c0-1.6.97-2.43,2.29-2.43,1.44,0,2.11.92,2.11,1.94v1.01h-.83v-.94c0-.56-.29-1.24-1.28-1.24s-1.37.76-1.37,1.55v4.97c0,.83.31,1.58,1.35,1.58,1.15,0,1.3-.85,1.3-1.33v-.86h.83v.96c0,1.19-.74,2.03-2.16,2.03s-2.23-.88-2.23-2.45Z"></path><path d="m185.71,47.02v-4.77c0-1.57,1.01-2.43,2.32-2.43s2.29.81,2.29,2.34v4.83c0,1.69-.97,2.5-2.32,2.5-1.46,0-2.29-.9-2.29-2.47Zm3.69.04v-4.9c0-.83-.4-1.57-1.4-1.57s-1.37.76-1.37,1.58v4.88c0,.83.38,1.64,1.4,1.64,1.1,0,1.37-.83,1.37-1.64Z"></path><path d="m192.4,40h.88v1.03h.02c.38-.85,1.03-1.1,1.66-1.1.13,0,.27,0,.38.04v.92c-.2-.02-.4-.04-.52-.04-.9,0-1.49.56-1.51,1.6v6.88h-.9v-9.33Z"></path><path d="m196.9,40h.88v1.03h.02c.38-.85,1.03-1.1,1.66-1.1.13,0,.27,0,.38.04v.92c-.2-.02-.4-.04-.52-.04-.9,0-1.49.56-1.51,1.6v6.88h-.9v-9.33Z"></path><path d="m201.29,47.89v-7.89h.9v7.51c0,.83.4,1.21,1.1,1.21.9,0,1.53-1.06,1.53-2.03v-6.68h.9v9.33h-.83v-1.08h-.02c-.4.83-1.17,1.26-1.98,1.26-.94,0-1.6-.63-1.6-1.62Z"></path><path d="m208.1,40h.83v1.01h.04c.36-.86,1.22-1.19,1.8-1.19,1.26,0,1.82.9,1.82,1.85v5.73c0,1.3-.79,2.09-1.94,2.09-.65,0-1.33-.32-1.62-1.01h-.02v3.76h-.9v-12.24Zm3.56,7.31v-5.37c0-.72-.29-1.28-1.19-1.28s-1.48.88-1.48,2v4.16c0,1.03.59,1.84,1.53,1.84.72,0,1.13-.41,1.13-1.35Z"></path><path d="m214.38,47.04v-4.79c0-1.6.97-2.43,2.29-2.43,1.44,0,2.11.92,2.11,1.94v1.01h-.83v-.94c0-.56-.29-1.24-1.28-1.24s-1.37.76-1.37,1.55v4.97c0,.83.31,1.58,1.35,1.58,1.15,0,1.3-.85,1.3-1.33v-.86h.83v.96c0,1.19-.74,2.03-2.16,2.03s-2.23-.88-2.23-2.45Z"></path><path d="m220.72,36.42h.9v1.76h-.9v-1.76Zm0,3.58h.9v9.33h-.9v-9.33Z"></path><path d="m223.7,47.02v-4.77c0-1.57,1.01-2.43,2.32-2.43s2.29.81,2.29,2.34v4.83c0,1.69-.97,2.5-2.32,2.5-1.46,0-2.29-.9-2.29-2.47Zm3.69.04v-4.9c0-.83-.4-1.57-1.4-1.57s-1.37.76-1.37,1.58v4.88c0,.83.38,1.64,1.4,1.64,1.1,0,1.37-.83,1.37-1.64Zm-.54-10.64h1.08l-1.57,2.5h-.76l1.24-2.5Z"></path><path d="m230.4,40h.83v1.06h.02c.38-.81,1.15-1.24,1.96-1.24.95,0,1.62.63,1.62,1.6v7.9h-.9v-7.47c0-.85-.41-1.26-1.1-1.26-.9,0-1.53,1.06-1.53,2.03v6.7h-.9v-9.33Z"></path><path d="m238.82,52.33l.13-.77c.23.05.43.09.67.09.38,0,.74-.14.94-.94l.36-1.64-2.07-9.08h.92l1.57,7.18h.04l1.4-7.18h.85l-2.18,10.17c-.29,1.49-.77,2.27-1.76,2.27-.23,0-.52-.02-.85-.11Z"></path><path d="m247.43,46.93v-4.54c0-1.62.92-2.58,2.32-2.58s2.09.99,2.09,2.39v2.63h-3.49v1.93c0,1.24.38,1.91,1.64,1.91.59,0,1.13-.22,1.51-.4l.27.68c-.5.32-1.21.52-1.91.52-1.53,0-2.43-.79-2.43-2.56Zm3.55-2.84v-1.93c0-.74-.29-1.55-1.31-1.55-.97,0-1.31.83-1.31,1.58v1.89h2.63Z"></path><path d="m253.8,48.14v-11.65h.9v11.47c0,.36.2.63.65.63.16,0,.32-.02.49-.05v.76c-.27.09-.52.13-.77.13-.86,0-1.26-.49-1.26-1.28Z"></path><path d="m259.4,47.2h.9c.13.96.45,1.5,1.3,1.5.7,0,1.15-.41,1.15-1.28,0-.79-.65-1.57-1.13-2.18l-.88-1.08c-.65-.83-1.08-1.51-1.08-2.38,0-1.04.65-1.95,2.03-1.95,1.1,0,1.89.7,1.96,2.18l-.86.04c-.11-1.06-.45-1.46-1.15-1.46s-1.12.49-1.12,1.12c0,.5.22,1.03.81,1.73l1.08,1.3c.83,1.06,1.21,1.89,1.21,2.65,0,1.04-.65,2.09-2.03,2.09s-2.09-.9-2.18-2.27Z"></path><path d="m265.41,36.42h.9v1.76h-.9v-1.76Zm0,3.58h.9v9.33h-.9v-9.33Z"></path><path d="m268.65,48.14v-11.65h.9v11.47c0,.36.2.63.65.63.16,0,.32-.02.49-.05v.76c-.27.09-.52.13-.77.13-.86,0-1.26-.49-1.26-1.28Z"></path><path d="m271.98,46.93v-4.54c0-1.62.92-2.58,2.32-2.58s2.09.99,2.09,2.39v2.63h-3.49v1.93c0,1.24.38,1.91,1.64,1.91.59,0,1.13-.22,1.51-.4l.27.68c-.5.32-1.21.52-1.91.52-1.53,0-2.43-.79-2.43-2.56Zm3.55-2.84v-1.93c0-.74-.29-1.55-1.31-1.55-.97,0-1.31.83-1.31,1.58v1.89h2.63Z"></path><path d="m278.39,40h.83v1.06h.02c.38-.81,1.15-1.24,1.96-1.24.95,0,1.62.63,1.62,1.6v7.9h-.9v-7.47c0-.85-.41-1.26-1.1-1.26-.9,0-1.53,1.06-1.53,2.03v6.7h-.9v-9.33Z"></path><path d="m284.79,47.04v-4.79c0-1.6.97-2.43,2.29-2.43,1.44,0,2.11.92,2.11,1.94v1.01h-.83v-.94c0-.56-.29-1.24-1.28-1.24s-1.37.76-1.37,1.55v4.97c0,.83.31,1.58,1.35,1.58,1.15,0,1.3-.85,1.3-1.33v-.86h.83v.96c0,1.19-.74,2.03-2.16,2.03s-2.23-.88-2.23-2.45Z"></path><path d="m291.13,36.42h.9v1.76h-.9v-1.76Zm0,3.58h.9v9.33h-.9v-9.33Z"></path><path d="m294.12,47.02v-4.77c0-1.57,1.01-2.43,2.32-2.43s2.29.81,2.29,2.34v4.83c0,1.69-.97,2.5-2.32,2.5-1.46,0-2.29-.9-2.29-2.47Zm3.69.04v-4.9c0-.83-.4-1.57-1.4-1.57s-1.37.76-1.37,1.58v4.88c0,.83.38,1.64,1.4,1.64,1.1,0,1.37-.83,1.37-1.64Z"></path><path d="m303.05,47.02v-4.77c0-1.57,1.01-2.43,2.32-2.43s2.29.81,2.29,2.34v4.83c0,1.69-.97,2.5-2.32,2.5-1.46,0-2.29-.9-2.29-2.47Zm3.69.04v-4.9c0-.83-.4-1.57-1.4-1.57s-1.37.76-1.37,1.58v4.88c0,.83.38,1.64,1.4,1.64,1.1,0,1.37-.83,1.37-1.64Z"></path><path d="m310.08,40.76h-.97v-.74h.97v-2.05c0-.95.61-1.64,1.6-1.64.22,0,.47,0,.72.09v.72c-.2-.04-.41-.05-.63-.05-.43,0-.79.29-.79.88v2.05h1.24v.74h-1.24v8.57h-.9v-8.57Zm3.4-4.34h.9v1.76h-.9v-1.76Zm0,3.58h.9v9.33h-.9v-9.33Z"></path><path d="m316.28,47.04v-4.79c0-1.6.97-2.43,2.29-2.43,1.44,0,2.11.92,2.11,1.94v1.01h-.83v-.94c0-.56-.29-1.24-1.28-1.24s-1.37.76-1.37,1.55v4.97c0,.83.31,1.58,1.35,1.58,1.15,0,1.3-.85,1.3-1.33v-.86h.83v.96c0,1.19-.74,2.03-2.16,2.03s-2.23-.88-2.23-2.45Z"></path><path d="m322.61,36.42h.9v1.76h-.9v-1.76Zm0,3.58h.9v9.33h-.9v-9.33Z"></path><path d="m325.42,46.7c0-1.78,1.04-2.93,2.56-2.99h.9v-2.05c0-.68-.41-1.1-1.19-1.1-.7,0-1.21.36-1.21,1.06v1.06h-.86v-1.04c0-1.06.81-1.82,2.18-1.82,1.22,0,1.98.74,1.98,1.78v5.4c0,.61.04,1.82.05,2.32h-.81c0-.2-.04-.72-.04-1.04h-.05c-.31.86-1.08,1.21-1.66,1.21-1.03,0-1.85-.88-1.85-2.79Zm3.46.2v-2.5h-.86c-.79,0-1.67.49-1.67,2.21,0,1.49.49,2.12,1.13,2.12.79,0,1.4-.9,1.4-1.84Z"></path><path d="m332.01,48.14v-11.65h.9v11.47c0,.36.2.63.65.63.16,0,.32-.02.49-.05v.76c-.27.09-.52.13-.77.13-.86,0-1.26-.49-1.26-1.28Z"></path></g></svg>